G04 MADE WITH FRITZING*
G04 WWW.FRITZING.ORG*
G04 DOUBLE SIDED*
G04 HOLES PLATED*
G04 CONTOUR ON CENTER OF CONTOUR VECTOR*
%ASAXBY*%
%FSLAX23Y23*%
%MOIN*%
%OFA0B0*%
%SFA1.0B1.0*%
%ADD10C,0.078000*%
%ADD11R,0.078740X0.236220*%
%ADD12R,0.086614X0.196850*%
%ADD13R,0.275590X0.070866*%
%ADD14R,0.070866X0.236220*%
%ADD15R,0.275590X0.103659*%
%ADD16C,0.016000*%
%LNCOPPER0*%
G90*
G70*
G54D10*
X3699Y5657D03*
X3599Y5657D03*
X3499Y5657D03*
X3399Y5657D03*
G54D11*
X2670Y5281D03*
G54D12*
X2219Y5583D03*
X2069Y5583D03*
X1919Y5583D03*
G54D13*
X2669Y4733D03*
X1620Y5031D03*
G54D14*
X2170Y4731D03*
X2270Y4731D03*
X1870Y4731D03*
X2070Y4731D03*
X1970Y4731D03*
X919Y4733D03*
X1019Y4733D03*
X1119Y4733D03*
X1219Y4733D03*
X1319Y4733D03*
G54D13*
X2669Y4633D03*
X1620Y4931D03*
X2669Y4833D03*
X1620Y5131D03*
X2669Y4933D03*
X1620Y5231D03*
X2669Y5033D03*
X1620Y5331D03*
G54D15*
X4642Y4531D03*
X4642Y4681D03*
X4642Y4831D03*
X4642Y4981D03*
G54D16*
X919Y4533D02*
X919Y4621D01*
D02*
X1369Y4734D02*
X1349Y4733D01*
D02*
X1219Y4883D02*
X1219Y4846D01*
D02*
X2320Y4883D02*
X2320Y5034D01*
D02*
X2270Y4880D02*
X2320Y4883D01*
D02*
X2668Y4432D02*
X2669Y4603D01*
D02*
X2469Y4483D02*
X2469Y4734D01*
D02*
X2469Y4734D02*
X2537Y4733D01*
D02*
X1969Y4480D02*
X2469Y4483D01*
D02*
X1970Y4618D02*
X1969Y4480D01*
D02*
X2420Y4834D02*
X2537Y4833D01*
D02*
X2420Y4533D02*
X2420Y4834D01*
D02*
X2070Y4531D02*
X2420Y4533D01*
D02*
X2070Y4618D02*
X2070Y4531D01*
D02*
X2369Y4934D02*
X2537Y4933D01*
D02*
X2369Y4583D02*
X2369Y4934D01*
D02*
X2169Y4581D02*
X2369Y4583D01*
D02*
X2169Y4618D02*
X2169Y4581D01*
D02*
X2320Y5034D02*
X2537Y5033D01*
D02*
X2270Y4843D02*
X2270Y4880D01*
D02*
X1969Y4880D02*
X1969Y4843D01*
D02*
X1821Y4880D02*
X1969Y4880D01*
D02*
X1819Y5222D02*
X1821Y4880D01*
D02*
X1870Y4432D02*
X1870Y4618D01*
D02*
X3370Y5632D02*
X2972Y5630D01*
D02*
X2972Y5630D02*
X2970Y4432D01*
D02*
X1769Y4531D02*
X919Y4533D01*
D02*
X2668Y4432D02*
X1870Y4432D01*
D02*
X1870Y4432D02*
X1769Y4531D01*
D02*
X2970Y4432D02*
X2668Y4432D01*
D02*
X720Y4531D02*
X720Y5730D01*
D02*
X919Y4533D02*
X720Y4531D01*
D02*
X720Y5730D02*
X1620Y5730D01*
D02*
X3380Y5641D02*
X3370Y5632D01*
D02*
X1620Y5730D02*
X2220Y5732D01*
D02*
X2220Y5732D02*
X2220Y5676D01*
D02*
X1620Y5730D02*
X1620Y5361D01*
D02*
X3119Y4531D02*
X4510Y4531D01*
D02*
X2970Y4432D02*
X3119Y4531D01*
D02*
X1819Y5222D02*
X1752Y5225D01*
D02*
X1819Y5383D02*
X1819Y5222D01*
D02*
X1820Y5583D02*
X1819Y5383D01*
D02*
X1882Y5583D02*
X1820Y5583D01*
D02*
X3269Y5683D02*
X3319Y5733D01*
D02*
X3319Y5733D02*
X3469Y5733D01*
D02*
X3469Y5733D02*
X3490Y5680D01*
D02*
X2914Y5681D02*
X3269Y5683D01*
D02*
X2919Y5130D02*
X2914Y5681D01*
D02*
X2569Y5131D02*
X2919Y5130D01*
D02*
X2569Y5383D02*
X2569Y5131D01*
D02*
X1819Y5383D02*
X2569Y5383D01*
D02*
X1721Y4780D02*
X1821Y4880D01*
D02*
X1721Y4580D02*
X1721Y4780D01*
D02*
X1019Y4583D02*
X1721Y4580D01*
D02*
X1019Y4621D02*
X1019Y4583D01*
D02*
X1119Y4846D02*
X1119Y4934D01*
D02*
X1370Y4931D02*
X1371Y5131D01*
D02*
X1119Y4934D02*
X1370Y4931D01*
D02*
X1371Y5131D02*
X1488Y5131D01*
D02*
X1420Y5030D02*
X1488Y5030D01*
D02*
X1420Y4881D02*
X1420Y5030D01*
D02*
X1219Y4883D02*
X1420Y4881D01*
D02*
X1620Y4831D02*
X1620Y4901D01*
D02*
X1369Y4734D02*
X1620Y4831D01*
D02*
X2671Y5431D02*
X2671Y5393D01*
D02*
X2069Y5434D02*
X2671Y5431D01*
D02*
X2069Y5490D02*
X2069Y5434D01*
D02*
X3014Y4681D02*
X4510Y4681D01*
D02*
X3013Y5580D02*
X3014Y4681D01*
D02*
X3469Y5583D02*
X3013Y5580D01*
D02*
X3489Y5634D02*
X3469Y5583D01*
D02*
X4071Y4832D02*
X4510Y4831D01*
D02*
X4064Y5581D02*
X4071Y4832D01*
D02*
X3619Y5583D02*
X4064Y5581D01*
D02*
X3605Y5633D02*
X3619Y5583D01*
D02*
X4120Y4980D02*
X4510Y4981D01*
D02*
X4114Y5631D02*
X4120Y4980D01*
D02*
X3719Y5633D02*
X4114Y5631D01*
D02*
X3715Y5638D02*
X3719Y5633D01*
G04 End of Copper0*
M02*