G04 MADE WITH FRITZING*
G04 WWW.FRITZING.ORG*
G04 DOUBLE SIDED*
G04 HOLES PLATED*
G04 CONTOUR ON CENTER OF CONTOUR VECTOR*
%ASAXBY*%
%FSLAX23Y23*%
%MOIN*%
%OFA0B0*%
%SFA1.0B1.0*%
%ADD10R,0.001000X0.001000*%
%LNSILK0*%
G90*
G70*
G54D10*
X2134Y5634D02*
X2136Y5634D01*
X2132Y5633D02*
X2137Y5633D01*
X2131Y5632D02*
X2137Y5632D01*
X2130Y5631D02*
X2137Y5631D01*
X2155Y5631D02*
X2157Y5631D01*
X2289Y5631D02*
X2296Y5631D01*
X2129Y5630D02*
X2137Y5630D01*
X2154Y5630D02*
X2158Y5630D01*
X2286Y5630D02*
X2298Y5630D01*
X2129Y5629D02*
X2135Y5629D01*
X2154Y5629D02*
X2158Y5629D01*
X2284Y5629D02*
X2300Y5629D01*
X2128Y5628D02*
X2133Y5628D01*
X2154Y5628D02*
X2158Y5628D01*
X2282Y5628D02*
X2302Y5628D01*
X2128Y5627D02*
X2133Y5627D01*
X2154Y5627D02*
X2158Y5627D01*
X2280Y5627D02*
X2304Y5627D01*
X2128Y5626D02*
X2133Y5626D01*
X2154Y5626D02*
X2158Y5626D01*
X2278Y5626D02*
X2290Y5626D01*
X2295Y5626D02*
X2306Y5626D01*
X2128Y5625D02*
X2133Y5625D01*
X2154Y5625D02*
X2158Y5625D01*
X2276Y5625D02*
X2287Y5625D01*
X2297Y5625D02*
X2308Y5625D01*
X2128Y5624D02*
X2133Y5624D01*
X2154Y5624D02*
X2158Y5624D01*
X2275Y5624D02*
X2286Y5624D01*
X2299Y5624D02*
X2310Y5624D01*
X2128Y5623D02*
X2133Y5623D01*
X2154Y5623D02*
X2158Y5623D01*
X2274Y5623D02*
X2284Y5623D01*
X2301Y5623D02*
X2311Y5623D01*
X2128Y5622D02*
X2133Y5622D01*
X2154Y5622D02*
X2158Y5622D01*
X2273Y5622D02*
X2282Y5622D01*
X2303Y5622D02*
X2312Y5622D01*
X2128Y5621D02*
X2133Y5621D01*
X2154Y5621D02*
X2158Y5621D01*
X2272Y5621D02*
X2280Y5621D01*
X2305Y5621D02*
X2312Y5621D01*
X2128Y5620D02*
X2133Y5620D01*
X2154Y5620D02*
X2158Y5620D01*
X2272Y5620D02*
X2278Y5620D01*
X2307Y5620D02*
X2313Y5620D01*
X2128Y5619D02*
X2134Y5619D01*
X2154Y5619D02*
X2158Y5619D01*
X2272Y5619D02*
X2277Y5619D01*
X2308Y5619D02*
X2313Y5619D01*
X2129Y5618D02*
X2166Y5618D01*
X2272Y5618D02*
X2276Y5618D01*
X2308Y5618D02*
X2313Y5618D01*
X2129Y5617D02*
X2167Y5617D01*
X2272Y5617D02*
X2276Y5617D01*
X2309Y5617D02*
X2313Y5617D01*
X2130Y5616D02*
X2167Y5616D01*
X2272Y5616D02*
X2276Y5616D01*
X2309Y5616D02*
X2313Y5616D01*
X2131Y5615D02*
X2167Y5615D01*
X2272Y5615D02*
X2313Y5615D01*
X2132Y5614D02*
X2167Y5614D01*
X2272Y5614D02*
X2313Y5614D01*
X2134Y5613D02*
X2166Y5613D01*
X2272Y5613D02*
X2313Y5613D01*
X2154Y5612D02*
X2158Y5612D01*
X2272Y5612D02*
X2313Y5612D01*
X2154Y5611D02*
X2158Y5611D01*
X2272Y5611D02*
X2313Y5611D01*
X2154Y5610D02*
X2158Y5610D01*
X2272Y5610D02*
X2276Y5610D01*
X2308Y5610D02*
X2313Y5610D01*
X2154Y5609D02*
X2158Y5609D01*
X2272Y5609D02*
X2276Y5609D01*
X2309Y5609D02*
X2313Y5609D01*
X2155Y5608D02*
X2157Y5608D01*
X2272Y5608D02*
X2276Y5608D01*
X2309Y5608D02*
X2313Y5608D01*
X2272Y5607D02*
X2276Y5607D01*
X2309Y5607D02*
X2313Y5607D01*
X2272Y5606D02*
X2276Y5606D01*
X2309Y5606D02*
X2313Y5606D01*
X2273Y5605D02*
X2274Y5605D01*
X2310Y5605D02*
X2311Y5605D01*
X1974Y5596D02*
X1977Y5596D01*
X1974Y5595D02*
X1978Y5595D01*
X2136Y5595D02*
X2150Y5595D01*
X1973Y5594D02*
X1978Y5594D01*
X2134Y5594D02*
X2153Y5594D01*
X1973Y5593D02*
X1978Y5593D01*
X2133Y5593D02*
X2154Y5593D01*
X1973Y5592D02*
X1978Y5592D01*
X2132Y5592D02*
X2155Y5592D01*
X2272Y5592D02*
X2312Y5592D01*
X1973Y5591D02*
X1978Y5591D01*
X2131Y5591D02*
X2156Y5591D01*
X2272Y5591D02*
X2313Y5591D01*
X1973Y5590D02*
X1978Y5590D01*
X2130Y5590D02*
X2156Y5590D01*
X2272Y5590D02*
X2313Y5590D01*
X1973Y5589D02*
X1978Y5589D01*
X2129Y5589D02*
X2135Y5589D01*
X2151Y5589D02*
X2157Y5589D01*
X2272Y5589D02*
X2313Y5589D01*
X1973Y5588D02*
X1978Y5588D01*
X2129Y5588D02*
X2134Y5588D01*
X2152Y5588D02*
X2158Y5588D01*
X2272Y5588D02*
X2312Y5588D01*
X1973Y5587D02*
X1978Y5587D01*
X2128Y5587D02*
X2133Y5587D01*
X2153Y5587D02*
X2158Y5587D01*
X2272Y5587D02*
X2281Y5587D01*
X1967Y5586D02*
X1987Y5586D01*
X2128Y5586D02*
X2133Y5586D01*
X2153Y5586D02*
X2158Y5586D01*
X2272Y5586D02*
X2283Y5586D01*
X1967Y5585D02*
X1988Y5585D01*
X2128Y5585D02*
X2133Y5585D01*
X2154Y5585D02*
X2158Y5585D01*
X2272Y5585D02*
X2285Y5585D01*
X1967Y5584D02*
X1989Y5584D01*
X2128Y5584D02*
X2133Y5584D01*
X2154Y5584D02*
X2158Y5584D01*
X2275Y5584D02*
X2287Y5584D01*
X1967Y5583D02*
X1989Y5583D01*
X2128Y5583D02*
X2133Y5583D01*
X2154Y5583D02*
X2158Y5583D01*
X2277Y5583D02*
X2290Y5583D01*
X1967Y5582D02*
X1988Y5582D01*
X2128Y5582D02*
X2133Y5582D01*
X2154Y5582D02*
X2158Y5582D01*
X2279Y5582D02*
X2292Y5582D01*
X1967Y5581D02*
X1987Y5581D01*
X2128Y5581D02*
X2133Y5581D01*
X2154Y5581D02*
X2158Y5581D01*
X2281Y5581D02*
X2294Y5581D01*
X1973Y5580D02*
X1978Y5580D01*
X2128Y5580D02*
X2133Y5580D01*
X2154Y5580D02*
X2158Y5580D01*
X2284Y5580D02*
X2297Y5580D01*
X1973Y5579D02*
X1978Y5579D01*
X2128Y5579D02*
X2133Y5579D01*
X2154Y5579D02*
X2158Y5579D01*
X2286Y5579D02*
X2299Y5579D01*
X1973Y5578D02*
X1978Y5578D01*
X2128Y5578D02*
X2133Y5578D01*
X2154Y5578D02*
X2158Y5578D01*
X2288Y5578D02*
X2301Y5578D01*
X1973Y5577D02*
X1978Y5577D01*
X2128Y5577D02*
X2133Y5577D01*
X2153Y5577D02*
X2158Y5577D01*
X2291Y5577D02*
X2303Y5577D01*
X1973Y5576D02*
X1978Y5576D01*
X2129Y5576D02*
X2134Y5576D01*
X2153Y5576D02*
X2158Y5576D01*
X2293Y5576D02*
X2306Y5576D01*
X1973Y5575D02*
X1978Y5575D01*
X2129Y5575D02*
X2135Y5575D01*
X2152Y5575D02*
X2157Y5575D01*
X2295Y5575D02*
X2308Y5575D01*
X1973Y5574D02*
X1978Y5574D01*
X2129Y5574D02*
X2136Y5574D01*
X2151Y5574D02*
X2157Y5574D01*
X2297Y5574D02*
X2310Y5574D01*
X1973Y5573D02*
X1978Y5573D01*
X2130Y5573D02*
X2156Y5573D01*
X2300Y5573D02*
X2312Y5573D01*
X1973Y5572D02*
X1978Y5572D01*
X2131Y5572D02*
X2155Y5572D01*
X2302Y5572D02*
X2313Y5572D01*
X1974Y5571D02*
X1977Y5571D01*
X2132Y5571D02*
X2154Y5571D01*
X2275Y5571D02*
X2313Y5571D01*
X1975Y5570D02*
X1976Y5570D01*
X2133Y5570D02*
X2153Y5570D01*
X2272Y5570D02*
X2313Y5570D01*
X2134Y5569D02*
X2152Y5569D01*
X2272Y5569D02*
X2313Y5569D01*
X2272Y5568D02*
X2313Y5568D01*
X2272Y5567D02*
X2313Y5567D01*
X2273Y5566D02*
X2313Y5566D01*
X2140Y5556D02*
X2147Y5556D01*
X2135Y5555D02*
X2151Y5555D01*
X2134Y5554D02*
X2152Y5554D01*
X2133Y5553D02*
X2153Y5553D01*
X2277Y5553D02*
X2290Y5553D01*
X2310Y5553D02*
X2312Y5553D01*
X2132Y5552D02*
X2154Y5552D01*
X2275Y5552D02*
X2290Y5552D01*
X2309Y5552D02*
X2313Y5552D01*
X2131Y5551D02*
X2155Y5551D01*
X2274Y5551D02*
X2290Y5551D01*
X2309Y5551D02*
X2313Y5551D01*
X2130Y5550D02*
X2137Y5550D01*
X2149Y5550D02*
X2156Y5550D01*
X2273Y5550D02*
X2290Y5550D01*
X2309Y5550D02*
X2313Y5550D01*
X2129Y5549D02*
X2136Y5549D01*
X2151Y5549D02*
X2157Y5549D01*
X2273Y5549D02*
X2290Y5549D01*
X2309Y5549D02*
X2313Y5549D01*
X2129Y5548D02*
X2135Y5548D01*
X2151Y5548D02*
X2158Y5548D01*
X2272Y5548D02*
X2290Y5548D01*
X2309Y5548D02*
X2313Y5548D01*
X2128Y5547D02*
X2134Y5547D01*
X2152Y5547D02*
X2158Y5547D01*
X2272Y5547D02*
X2277Y5547D01*
X2285Y5547D02*
X2290Y5547D01*
X2309Y5547D02*
X2313Y5547D01*
X2128Y5546D02*
X2133Y5546D01*
X2153Y5546D02*
X2159Y5546D01*
X2272Y5546D02*
X2276Y5546D01*
X2285Y5546D02*
X2290Y5546D01*
X2309Y5546D02*
X2313Y5546D01*
X2127Y5545D02*
X2132Y5545D01*
X2154Y5545D02*
X2159Y5545D01*
X2272Y5545D02*
X2276Y5545D01*
X2285Y5545D02*
X2290Y5545D01*
X2309Y5545D02*
X2313Y5545D01*
X2127Y5544D02*
X2132Y5544D01*
X2155Y5544D02*
X2159Y5544D01*
X2272Y5544D02*
X2276Y5544D01*
X2285Y5544D02*
X2290Y5544D01*
X2309Y5544D02*
X2313Y5544D01*
X2127Y5543D02*
X2132Y5543D01*
X2155Y5543D02*
X2159Y5543D01*
X2272Y5543D02*
X2276Y5543D01*
X2285Y5543D02*
X2290Y5543D01*
X2309Y5543D02*
X2313Y5543D01*
X2127Y5542D02*
X2132Y5542D01*
X2155Y5542D02*
X2159Y5542D01*
X2272Y5542D02*
X2276Y5542D01*
X2286Y5542D02*
X2290Y5542D01*
X2308Y5542D02*
X2313Y5542D01*
X2127Y5541D02*
X2132Y5541D01*
X2155Y5541D02*
X2159Y5541D01*
X2272Y5541D02*
X2276Y5541D01*
X2286Y5541D02*
X2289Y5541D01*
X2308Y5541D02*
X2313Y5541D01*
X2127Y5540D02*
X2132Y5540D01*
X2154Y5540D02*
X2159Y5540D01*
X2272Y5540D02*
X2276Y5540D01*
X2287Y5540D02*
X2288Y5540D01*
X2307Y5540D02*
X2313Y5540D01*
X2128Y5539D02*
X2133Y5539D01*
X2153Y5539D02*
X2159Y5539D01*
X2272Y5539D02*
X2276Y5539D01*
X2306Y5539D02*
X2312Y5539D01*
X2128Y5538D02*
X2134Y5538D01*
X2152Y5538D02*
X2158Y5538D01*
X2272Y5538D02*
X2276Y5538D01*
X2305Y5538D02*
X2312Y5538D01*
X2129Y5537D02*
X2135Y5537D01*
X2151Y5537D02*
X2158Y5537D01*
X2272Y5537D02*
X2276Y5537D01*
X2303Y5537D02*
X2311Y5537D01*
X2129Y5536D02*
X2136Y5536D01*
X2150Y5536D02*
X2157Y5536D01*
X2272Y5536D02*
X2276Y5536D01*
X2302Y5536D02*
X2310Y5536D01*
X2130Y5535D02*
X2137Y5535D01*
X2149Y5535D02*
X2156Y5535D01*
X2272Y5535D02*
X2276Y5535D01*
X2301Y5535D02*
X2309Y5535D01*
X2118Y5534D02*
X2158Y5534D01*
X2272Y5534D02*
X2276Y5534D01*
X2299Y5534D02*
X2307Y5534D01*
X2117Y5533D02*
X2159Y5533D01*
X2272Y5533D02*
X2277Y5533D01*
X2298Y5533D02*
X2306Y5533D01*
X2117Y5532D02*
X2159Y5532D01*
X2272Y5532D02*
X2278Y5532D01*
X2296Y5532D02*
X2305Y5532D01*
X2117Y5531D02*
X2159Y5531D01*
X2272Y5531D02*
X2304Y5531D01*
X2117Y5530D02*
X2159Y5530D01*
X2273Y5530D02*
X2302Y5530D01*
X2119Y5529D02*
X2157Y5529D01*
X2274Y5529D02*
X2301Y5529D01*
X2275Y5528D02*
X2300Y5528D01*
X2276Y5527D02*
X2298Y5527D01*
X1783Y5350D02*
X1796Y5350D01*
X1812Y5350D02*
X1814Y5350D01*
X1830Y5350D02*
X1837Y5350D01*
X1851Y5350D02*
X1863Y5350D01*
X1781Y5349D02*
X1797Y5349D01*
X1811Y5349D02*
X1815Y5349D01*
X1830Y5349D02*
X1837Y5349D01*
X1850Y5349D02*
X1864Y5349D01*
X1780Y5348D02*
X1797Y5348D01*
X1811Y5348D02*
X1815Y5348D01*
X1829Y5348D02*
X1837Y5348D01*
X1850Y5348D02*
X1866Y5348D01*
X1779Y5347D02*
X1797Y5347D01*
X1811Y5347D02*
X1815Y5347D01*
X1829Y5347D02*
X1837Y5347D01*
X1850Y5347D02*
X1867Y5347D01*
X1778Y5346D02*
X1797Y5346D01*
X1811Y5346D02*
X1815Y5346D01*
X1828Y5346D02*
X1837Y5346D01*
X1851Y5346D02*
X1867Y5346D01*
X1778Y5345D02*
X1794Y5345D01*
X1811Y5345D02*
X1815Y5345D01*
X1828Y5345D02*
X1837Y5345D01*
X1853Y5345D02*
X1868Y5345D01*
X1777Y5344D02*
X1783Y5344D01*
X1788Y5344D02*
X1792Y5344D01*
X1811Y5344D02*
X1815Y5344D01*
X1828Y5344D02*
X1837Y5344D01*
X1863Y5344D02*
X1869Y5344D01*
X1777Y5343D02*
X1782Y5343D01*
X1788Y5343D02*
X1792Y5343D01*
X1811Y5343D02*
X1815Y5343D01*
X1827Y5343D02*
X1837Y5343D01*
X1864Y5343D02*
X1870Y5343D01*
X1776Y5342D02*
X1781Y5342D01*
X1788Y5342D02*
X1792Y5342D01*
X1811Y5342D02*
X1815Y5342D01*
X1827Y5342D02*
X1837Y5342D01*
X1864Y5342D02*
X1870Y5342D01*
X1776Y5341D02*
X1781Y5341D01*
X1788Y5341D02*
X1792Y5341D01*
X1811Y5341D02*
X1815Y5341D01*
X1826Y5341D02*
X1837Y5341D01*
X1865Y5341D02*
X1871Y5341D01*
X1775Y5340D02*
X1780Y5340D01*
X1788Y5340D02*
X1792Y5340D01*
X1811Y5340D02*
X1815Y5340D01*
X1826Y5340D02*
X1837Y5340D01*
X1866Y5340D02*
X1872Y5340D01*
X1775Y5339D02*
X1780Y5339D01*
X1788Y5339D02*
X1792Y5339D01*
X1811Y5339D02*
X1815Y5339D01*
X1825Y5339D02*
X1830Y5339D01*
X1832Y5339D02*
X1837Y5339D01*
X1867Y5339D02*
X1873Y5339D01*
X1774Y5338D02*
X1779Y5338D01*
X1788Y5338D02*
X1792Y5338D01*
X1811Y5338D02*
X1815Y5338D01*
X1825Y5338D02*
X1830Y5338D01*
X1832Y5338D02*
X1837Y5338D01*
X1868Y5338D02*
X1873Y5338D01*
X1774Y5337D02*
X1779Y5337D01*
X1788Y5337D02*
X1792Y5337D01*
X1811Y5337D02*
X1815Y5337D01*
X1825Y5337D02*
X1830Y5337D01*
X1832Y5337D02*
X1837Y5337D01*
X1868Y5337D02*
X1874Y5337D01*
X2586Y5337D02*
X2589Y5337D01*
X1773Y5336D02*
X1778Y5336D01*
X1788Y5336D02*
X1792Y5336D01*
X1811Y5336D02*
X1815Y5336D01*
X1824Y5336D02*
X1829Y5336D01*
X1832Y5336D02*
X1837Y5336D01*
X1869Y5336D02*
X1875Y5336D01*
X2584Y5336D02*
X2590Y5336D01*
X1773Y5335D02*
X1778Y5335D01*
X1788Y5335D02*
X1792Y5335D01*
X1811Y5335D02*
X1815Y5335D01*
X1824Y5335D02*
X1829Y5335D01*
X1832Y5335D02*
X1837Y5335D01*
X1870Y5335D02*
X1875Y5335D01*
X2583Y5335D02*
X2590Y5335D01*
X1772Y5334D02*
X1777Y5334D01*
X1788Y5334D02*
X1792Y5334D01*
X1811Y5334D02*
X1815Y5334D01*
X1823Y5334D02*
X1828Y5334D01*
X1832Y5334D02*
X1837Y5334D01*
X1871Y5334D02*
X1876Y5334D01*
X2582Y5334D02*
X2590Y5334D01*
X2607Y5334D02*
X2610Y5334D01*
X1772Y5333D02*
X1777Y5333D01*
X1788Y5333D02*
X1792Y5333D01*
X1811Y5333D02*
X1815Y5333D01*
X1823Y5333D02*
X1828Y5333D01*
X1832Y5333D02*
X1837Y5333D01*
X1871Y5333D02*
X1876Y5333D01*
X2582Y5333D02*
X2589Y5333D01*
X2607Y5333D02*
X2611Y5333D01*
X1772Y5332D02*
X1776Y5332D01*
X1788Y5332D02*
X1792Y5332D01*
X1811Y5332D02*
X1815Y5332D01*
X1822Y5332D02*
X1827Y5332D01*
X1832Y5332D02*
X1837Y5332D01*
X1871Y5332D02*
X1876Y5332D01*
X2581Y5332D02*
X2588Y5332D01*
X2606Y5332D02*
X2611Y5332D01*
X1772Y5331D02*
X1776Y5331D01*
X1788Y5331D02*
X1792Y5331D01*
X1811Y5331D02*
X1815Y5331D01*
X1822Y5331D02*
X1827Y5331D01*
X1832Y5331D02*
X1837Y5331D01*
X1871Y5331D02*
X1876Y5331D01*
X2581Y5331D02*
X2586Y5331D01*
X2606Y5331D02*
X2611Y5331D01*
X1771Y5330D02*
X1776Y5330D01*
X1788Y5330D02*
X1792Y5330D01*
X1811Y5330D02*
X1815Y5330D01*
X1821Y5330D02*
X1827Y5330D01*
X1832Y5330D02*
X1837Y5330D01*
X1871Y5330D02*
X1876Y5330D01*
X2581Y5330D02*
X2586Y5330D01*
X2606Y5330D02*
X2611Y5330D01*
X1771Y5329D02*
X1776Y5329D01*
X1788Y5329D02*
X1792Y5329D01*
X1811Y5329D02*
X1815Y5329D01*
X1821Y5329D02*
X1826Y5329D01*
X1832Y5329D02*
X1837Y5329D01*
X1871Y5329D02*
X1876Y5329D01*
X2581Y5329D02*
X2585Y5329D01*
X2606Y5329D02*
X2611Y5329D01*
X1771Y5328D02*
X1776Y5328D01*
X1788Y5328D02*
X1792Y5328D01*
X1811Y5328D02*
X1815Y5328D01*
X1821Y5328D02*
X1826Y5328D01*
X1832Y5328D02*
X1837Y5328D01*
X1871Y5328D02*
X1876Y5328D01*
X2581Y5328D02*
X2585Y5328D01*
X2606Y5328D02*
X2611Y5328D01*
X1772Y5327D02*
X1776Y5327D01*
X1788Y5327D02*
X1792Y5327D01*
X1811Y5327D02*
X1815Y5327D01*
X1820Y5327D02*
X1825Y5327D01*
X1832Y5327D02*
X1837Y5327D01*
X1850Y5327D02*
X1861Y5327D01*
X1871Y5327D02*
X1876Y5327D01*
X2581Y5327D02*
X2585Y5327D01*
X2606Y5327D02*
X2611Y5327D01*
X1772Y5326D02*
X1777Y5326D01*
X1788Y5326D02*
X1792Y5326D01*
X1811Y5326D02*
X1815Y5326D01*
X1820Y5326D02*
X1825Y5326D01*
X1832Y5326D02*
X1837Y5326D01*
X1850Y5326D02*
X1862Y5326D01*
X1871Y5326D02*
X1876Y5326D01*
X2581Y5326D02*
X2585Y5326D01*
X2606Y5326D02*
X2611Y5326D01*
X1772Y5325D02*
X1777Y5325D01*
X1788Y5325D02*
X1792Y5325D01*
X1811Y5325D02*
X1815Y5325D01*
X1819Y5325D02*
X1824Y5325D01*
X1832Y5325D02*
X1837Y5325D01*
X1850Y5325D02*
X1862Y5325D01*
X1871Y5325D02*
X1876Y5325D01*
X2581Y5325D02*
X2585Y5325D01*
X2606Y5325D02*
X2611Y5325D01*
X1773Y5324D02*
X1778Y5324D01*
X1788Y5324D02*
X1792Y5324D01*
X1811Y5324D02*
X1815Y5324D01*
X1819Y5324D02*
X1824Y5324D01*
X1832Y5324D02*
X1837Y5324D01*
X1850Y5324D02*
X1862Y5324D01*
X1871Y5324D02*
X1876Y5324D01*
X2581Y5324D02*
X2585Y5324D01*
X2606Y5324D02*
X2611Y5324D01*
X1773Y5323D02*
X1778Y5323D01*
X1788Y5323D02*
X1792Y5323D01*
X1811Y5323D02*
X1815Y5323D01*
X1818Y5323D02*
X1823Y5323D01*
X1832Y5323D02*
X1837Y5323D01*
X1850Y5323D02*
X1862Y5323D01*
X1871Y5323D02*
X1876Y5323D01*
X2581Y5323D02*
X2586Y5323D01*
X2606Y5323D02*
X2611Y5323D01*
X1774Y5322D02*
X1779Y5322D01*
X1788Y5322D02*
X1792Y5322D01*
X1811Y5322D02*
X1815Y5322D01*
X1818Y5322D02*
X1823Y5322D01*
X1832Y5322D02*
X1837Y5322D01*
X1850Y5322D02*
X1860Y5322D01*
X1871Y5322D02*
X1876Y5322D01*
X2581Y5322D02*
X2586Y5322D01*
X2606Y5322D02*
X2611Y5322D01*
X1774Y5321D02*
X1779Y5321D01*
X1788Y5321D02*
X1792Y5321D01*
X1811Y5321D02*
X1815Y5321D01*
X1818Y5321D02*
X1823Y5321D01*
X1832Y5321D02*
X1837Y5321D01*
X1850Y5321D02*
X1854Y5321D01*
X1871Y5321D02*
X1876Y5321D01*
X2581Y5321D02*
X2619Y5321D01*
X1774Y5320D02*
X1780Y5320D01*
X1788Y5320D02*
X1792Y5320D01*
X1811Y5320D02*
X1815Y5320D01*
X1817Y5320D02*
X1822Y5320D01*
X1832Y5320D02*
X1837Y5320D01*
X1850Y5320D02*
X1854Y5320D01*
X1871Y5320D02*
X1876Y5320D01*
X2582Y5320D02*
X2620Y5320D01*
X1775Y5319D02*
X1780Y5319D01*
X1788Y5319D02*
X1792Y5319D01*
X1811Y5319D02*
X1815Y5319D01*
X1817Y5319D02*
X1822Y5319D01*
X1832Y5319D02*
X1837Y5319D01*
X1850Y5319D02*
X1854Y5319D01*
X1871Y5319D02*
X1876Y5319D01*
X2583Y5319D02*
X2620Y5319D01*
X1775Y5318D02*
X1781Y5318D01*
X1788Y5318D02*
X1792Y5318D01*
X1811Y5318D02*
X1821Y5318D01*
X1832Y5318D02*
X1837Y5318D01*
X1850Y5318D02*
X1854Y5318D01*
X1871Y5318D02*
X1876Y5318D01*
X2584Y5318D02*
X2620Y5318D01*
X1776Y5317D02*
X1781Y5317D01*
X1788Y5317D02*
X1792Y5317D01*
X1811Y5317D02*
X1821Y5317D01*
X1832Y5317D02*
X1837Y5317D01*
X1850Y5317D02*
X1854Y5317D01*
X1871Y5317D02*
X1876Y5317D01*
X2585Y5317D02*
X2620Y5317D01*
X1776Y5316D02*
X1782Y5316D01*
X1788Y5316D02*
X1792Y5316D01*
X1811Y5316D02*
X1820Y5316D01*
X1832Y5316D02*
X1837Y5316D01*
X1850Y5316D02*
X1854Y5316D01*
X1871Y5316D02*
X1876Y5316D01*
X2588Y5316D02*
X2618Y5316D01*
X1777Y5315D02*
X1782Y5315D01*
X1788Y5315D02*
X1792Y5315D01*
X1811Y5315D02*
X1820Y5315D01*
X1832Y5315D02*
X1837Y5315D01*
X1850Y5315D02*
X1855Y5315D01*
X1871Y5315D02*
X1876Y5315D01*
X2606Y5315D02*
X2611Y5315D01*
X1777Y5314D02*
X1783Y5314D01*
X1788Y5314D02*
X1792Y5314D01*
X1811Y5314D02*
X1820Y5314D01*
X1832Y5314D02*
X1837Y5314D01*
X1850Y5314D02*
X1856Y5314D01*
X1870Y5314D02*
X1876Y5314D01*
X2606Y5314D02*
X2611Y5314D01*
X1778Y5313D02*
X1796Y5313D01*
X1811Y5313D02*
X1819Y5313D01*
X1832Y5313D02*
X1837Y5313D01*
X1851Y5313D02*
X1875Y5313D01*
X2606Y5313D02*
X2611Y5313D01*
X1779Y5312D02*
X1797Y5312D01*
X1811Y5312D02*
X1819Y5312D01*
X1832Y5312D02*
X1837Y5312D01*
X1851Y5312D02*
X1875Y5312D01*
X2607Y5312D02*
X2611Y5312D01*
X1779Y5311D02*
X1797Y5311D01*
X1811Y5311D02*
X1818Y5311D01*
X1832Y5311D02*
X1837Y5311D01*
X1852Y5311D02*
X1874Y5311D01*
X2607Y5311D02*
X2610Y5311D01*
X1780Y5310D02*
X1797Y5310D01*
X1811Y5310D02*
X1818Y5310D01*
X1832Y5310D02*
X1837Y5310D01*
X1853Y5310D02*
X1873Y5310D01*
X1782Y5309D02*
X1797Y5309D01*
X1811Y5309D02*
X1817Y5309D01*
X1833Y5309D02*
X1836Y5309D01*
X1854Y5309D02*
X1872Y5309D01*
X1786Y5308D02*
X1795Y5308D01*
X1811Y5308D02*
X1817Y5308D01*
X1858Y5308D02*
X1868Y5308D01*
X2588Y5298D02*
X2603Y5298D01*
X2586Y5297D02*
X2605Y5297D01*
X2585Y5296D02*
X2607Y5296D01*
X2584Y5295D02*
X2608Y5295D01*
X2583Y5294D02*
X2608Y5294D01*
X2583Y5293D02*
X2609Y5293D01*
X2582Y5292D02*
X2588Y5292D01*
X2604Y5292D02*
X2610Y5292D01*
X2581Y5291D02*
X2587Y5291D01*
X2605Y5291D02*
X2610Y5291D01*
X2581Y5290D02*
X2586Y5290D01*
X2606Y5290D02*
X2611Y5290D01*
X2581Y5289D02*
X2586Y5289D01*
X2606Y5289D02*
X2611Y5289D01*
X2581Y5288D02*
X2585Y5288D01*
X2606Y5288D02*
X2611Y5288D01*
X2581Y5287D02*
X2585Y5287D01*
X2606Y5287D02*
X2611Y5287D01*
X2581Y5286D02*
X2585Y5286D01*
X2606Y5286D02*
X2611Y5286D01*
X2581Y5285D02*
X2585Y5285D01*
X2606Y5285D02*
X2611Y5285D01*
X2581Y5284D02*
X2585Y5284D01*
X2606Y5284D02*
X2611Y5284D01*
X2581Y5283D02*
X2585Y5283D01*
X2606Y5283D02*
X2611Y5283D01*
X2581Y5282D02*
X2585Y5282D01*
X2606Y5282D02*
X2611Y5282D01*
X2581Y5281D02*
X2585Y5281D01*
X2606Y5281D02*
X2611Y5281D01*
X2581Y5280D02*
X2586Y5280D01*
X2606Y5280D02*
X2611Y5280D01*
X2581Y5279D02*
X2587Y5279D01*
X2605Y5279D02*
X2610Y5279D01*
X2582Y5278D02*
X2587Y5278D01*
X2604Y5278D02*
X2610Y5278D01*
X2582Y5277D02*
X2589Y5277D01*
X2603Y5277D02*
X2610Y5277D01*
X2583Y5276D02*
X2609Y5276D01*
X2584Y5275D02*
X2608Y5275D01*
X2585Y5274D02*
X2607Y5274D01*
X2586Y5273D02*
X2606Y5273D01*
X2587Y5272D02*
X2604Y5272D01*
X2591Y5259D02*
X2601Y5259D01*
X2588Y5258D02*
X2604Y5258D01*
X2587Y5257D02*
X2605Y5257D01*
X2586Y5256D02*
X2606Y5256D01*
X2585Y5255D02*
X2607Y5255D01*
X2584Y5254D02*
X2608Y5254D01*
X2583Y5253D02*
X2589Y5253D01*
X2602Y5253D02*
X2609Y5253D01*
X2582Y5252D02*
X2588Y5252D01*
X2603Y5252D02*
X2610Y5252D01*
X2581Y5251D02*
X2588Y5251D01*
X2604Y5251D02*
X2610Y5251D01*
X2581Y5250D02*
X2587Y5250D01*
X2605Y5250D02*
X2611Y5250D01*
X2580Y5249D02*
X2586Y5249D01*
X2606Y5249D02*
X2611Y5249D01*
X2580Y5248D02*
X2585Y5248D01*
X2607Y5248D02*
X2612Y5248D01*
X2580Y5247D02*
X2584Y5247D01*
X2607Y5247D02*
X2612Y5247D01*
X2580Y5246D02*
X2584Y5246D01*
X2607Y5246D02*
X2612Y5246D01*
X2580Y5245D02*
X2584Y5245D01*
X2607Y5245D02*
X2612Y5245D01*
X2580Y5244D02*
X2585Y5244D01*
X2607Y5244D02*
X2612Y5244D01*
X2580Y5243D02*
X2585Y5243D01*
X2607Y5243D02*
X2612Y5243D01*
X2580Y5242D02*
X2586Y5242D01*
X2606Y5242D02*
X2611Y5242D01*
X2581Y5241D02*
X2587Y5241D01*
X2605Y5241D02*
X2611Y5241D01*
X1835Y5240D02*
X1839Y5240D01*
X2582Y5240D02*
X2588Y5240D01*
X2604Y5240D02*
X2610Y5240D01*
X1835Y5239D02*
X1839Y5239D01*
X2582Y5239D02*
X2589Y5239D01*
X2603Y5239D02*
X2609Y5239D01*
X1834Y5238D02*
X1840Y5238D01*
X2583Y5238D02*
X2590Y5238D01*
X2601Y5238D02*
X2608Y5238D01*
X1834Y5237D02*
X1840Y5237D01*
X2571Y5237D02*
X2611Y5237D01*
X1834Y5236D02*
X1840Y5236D01*
X2570Y5236D02*
X2612Y5236D01*
X1834Y5235D02*
X1840Y5235D01*
X2569Y5235D02*
X2612Y5235D01*
X1834Y5234D02*
X1840Y5234D01*
X2569Y5234D02*
X2612Y5234D01*
X1834Y5233D02*
X1840Y5233D01*
X2570Y5233D02*
X2611Y5233D01*
X1834Y5232D02*
X1840Y5232D01*
X2572Y5232D02*
X2609Y5232D01*
X1834Y5231D02*
X1840Y5231D01*
X1834Y5230D02*
X1840Y5230D01*
X1834Y5229D02*
X1840Y5229D01*
X1834Y5228D02*
X1840Y5228D01*
X1834Y5227D02*
X1840Y5227D01*
X1822Y5226D02*
X1852Y5226D01*
X1820Y5225D02*
X1853Y5225D01*
X1820Y5224D02*
X1854Y5224D01*
X1820Y5223D02*
X1854Y5223D01*
X1820Y5222D02*
X1854Y5222D01*
X1821Y5221D02*
X1853Y5221D01*
X1822Y5220D02*
X1852Y5220D01*
X1834Y5219D02*
X1840Y5219D01*
X1834Y5218D02*
X1840Y5218D01*
X1834Y5217D02*
X1840Y5217D01*
X1834Y5216D02*
X1840Y5216D01*
X1834Y5215D02*
X1840Y5215D01*
X1834Y5214D02*
X1840Y5214D01*
X1834Y5213D02*
X1840Y5213D01*
X1834Y5212D02*
X1840Y5212D01*
X1834Y5211D02*
X1840Y5211D01*
X1834Y5210D02*
X1840Y5210D01*
X1834Y5209D02*
X1840Y5209D01*
X1834Y5208D02*
X1840Y5208D01*
X1835Y5207D02*
X1839Y5207D01*
X1836Y5206D02*
X1838Y5206D01*
X1783Y5150D02*
X1784Y5150D01*
X1805Y5150D02*
X1805Y5150D01*
X1827Y5150D02*
X1842Y5150D01*
X1782Y5149D02*
X1785Y5149D01*
X1804Y5149D02*
X1807Y5149D01*
X1824Y5149D02*
X1844Y5149D01*
X1781Y5148D02*
X1786Y5148D01*
X1803Y5148D02*
X1807Y5148D01*
X1823Y5148D02*
X1845Y5148D01*
X1781Y5147D02*
X1786Y5147D01*
X1803Y5147D02*
X1807Y5147D01*
X1822Y5147D02*
X1846Y5147D01*
X1781Y5146D02*
X1786Y5146D01*
X1803Y5146D02*
X1807Y5146D01*
X1821Y5146D02*
X1846Y5146D01*
X1781Y5145D02*
X1786Y5145D01*
X1803Y5145D02*
X1807Y5145D01*
X1821Y5145D02*
X1847Y5145D01*
X1781Y5144D02*
X1786Y5144D01*
X1803Y5144D02*
X1807Y5144D01*
X1821Y5144D02*
X1826Y5144D01*
X1842Y5144D02*
X1847Y5144D01*
X1781Y5143D02*
X1786Y5143D01*
X1803Y5143D02*
X1807Y5143D01*
X1821Y5143D02*
X1825Y5143D01*
X1842Y5143D02*
X1847Y5143D01*
X1781Y5142D02*
X1786Y5142D01*
X1803Y5142D02*
X1807Y5142D01*
X1821Y5142D02*
X1825Y5142D01*
X1841Y5142D02*
X1846Y5142D01*
X1781Y5141D02*
X1786Y5141D01*
X1803Y5141D02*
X1807Y5141D01*
X1821Y5141D02*
X1824Y5141D01*
X1840Y5141D02*
X1846Y5141D01*
X1781Y5140D02*
X1786Y5140D01*
X1803Y5140D02*
X1807Y5140D01*
X1839Y5140D02*
X1845Y5140D01*
X1781Y5139D02*
X1786Y5139D01*
X1803Y5139D02*
X1807Y5139D01*
X1839Y5139D02*
X1845Y5139D01*
X1781Y5138D02*
X1786Y5138D01*
X1803Y5138D02*
X1807Y5138D01*
X1838Y5138D02*
X1844Y5138D01*
X1781Y5137D02*
X1786Y5137D01*
X1803Y5137D02*
X1807Y5137D01*
X1837Y5137D02*
X1843Y5137D01*
X1781Y5136D02*
X1786Y5136D01*
X1794Y5136D02*
X1795Y5136D01*
X1803Y5136D02*
X1807Y5136D01*
X1836Y5136D02*
X1842Y5136D01*
X1781Y5135D02*
X1786Y5135D01*
X1793Y5135D02*
X1796Y5135D01*
X1803Y5135D02*
X1807Y5135D01*
X1835Y5135D02*
X1841Y5135D01*
X1781Y5134D02*
X1786Y5134D01*
X1792Y5134D02*
X1797Y5134D01*
X1803Y5134D02*
X1807Y5134D01*
X1835Y5134D02*
X1841Y5134D01*
X1781Y5133D02*
X1786Y5133D01*
X1792Y5133D02*
X1797Y5133D01*
X1803Y5133D02*
X1807Y5133D01*
X1834Y5133D02*
X1840Y5133D01*
X1781Y5132D02*
X1786Y5132D01*
X1792Y5132D02*
X1797Y5132D01*
X1803Y5132D02*
X1807Y5132D01*
X1833Y5132D02*
X1839Y5132D01*
X1781Y5131D02*
X1786Y5131D01*
X1792Y5131D02*
X1797Y5131D01*
X1803Y5131D02*
X1807Y5131D01*
X1832Y5131D02*
X1838Y5131D01*
X1781Y5130D02*
X1786Y5130D01*
X1792Y5130D02*
X1797Y5130D01*
X1803Y5130D02*
X1807Y5130D01*
X1832Y5130D02*
X1838Y5130D01*
X1781Y5129D02*
X1786Y5129D01*
X1792Y5129D02*
X1797Y5129D01*
X1803Y5129D02*
X1807Y5129D01*
X1831Y5129D02*
X1837Y5129D01*
X1781Y5128D02*
X1786Y5128D01*
X1792Y5128D02*
X1797Y5128D01*
X1803Y5128D02*
X1807Y5128D01*
X1830Y5128D02*
X1836Y5128D01*
X1781Y5127D02*
X1786Y5127D01*
X1792Y5127D02*
X1797Y5127D01*
X1803Y5127D02*
X1807Y5127D01*
X1829Y5127D02*
X1835Y5127D01*
X1781Y5126D02*
X1786Y5126D01*
X1792Y5126D02*
X1797Y5126D01*
X1803Y5126D02*
X1807Y5126D01*
X1828Y5126D02*
X1834Y5126D01*
X1781Y5125D02*
X1786Y5125D01*
X1792Y5125D02*
X1797Y5125D01*
X1803Y5125D02*
X1807Y5125D01*
X1828Y5125D02*
X1834Y5125D01*
X1781Y5124D02*
X1786Y5124D01*
X1792Y5124D02*
X1797Y5124D01*
X1803Y5124D02*
X1807Y5124D01*
X1827Y5124D02*
X1833Y5124D01*
X1781Y5123D02*
X1786Y5123D01*
X1792Y5123D02*
X1797Y5123D01*
X1803Y5123D02*
X1807Y5123D01*
X1826Y5123D02*
X1832Y5123D01*
X1781Y5122D02*
X1786Y5122D01*
X1792Y5122D02*
X1797Y5122D01*
X1803Y5122D02*
X1807Y5122D01*
X1825Y5122D02*
X1831Y5122D01*
X1781Y5121D02*
X1786Y5121D01*
X1792Y5121D02*
X1797Y5121D01*
X1803Y5121D02*
X1807Y5121D01*
X1825Y5121D02*
X1831Y5121D01*
X1781Y5120D02*
X1786Y5120D01*
X1792Y5120D02*
X1797Y5120D01*
X1803Y5120D02*
X1807Y5120D01*
X1824Y5120D02*
X1830Y5120D01*
X1781Y5119D02*
X1786Y5119D01*
X1792Y5119D02*
X1797Y5119D01*
X1803Y5119D02*
X1807Y5119D01*
X1823Y5119D02*
X1829Y5119D01*
X1781Y5118D02*
X1786Y5118D01*
X1792Y5118D02*
X1797Y5118D01*
X1803Y5118D02*
X1807Y5118D01*
X1822Y5118D02*
X1828Y5118D01*
X1781Y5117D02*
X1786Y5117D01*
X1792Y5117D02*
X1797Y5117D01*
X1803Y5117D02*
X1807Y5117D01*
X1822Y5117D02*
X1828Y5117D01*
X1843Y5117D02*
X1846Y5117D01*
X1781Y5116D02*
X1786Y5116D01*
X1792Y5116D02*
X1797Y5116D01*
X1803Y5116D02*
X1807Y5116D01*
X1821Y5116D02*
X1827Y5116D01*
X1842Y5116D02*
X1846Y5116D01*
X1781Y5115D02*
X1786Y5115D01*
X1792Y5115D02*
X1797Y5115D01*
X1803Y5115D02*
X1807Y5115D01*
X1821Y5115D02*
X1826Y5115D01*
X1842Y5115D02*
X1847Y5115D01*
X1781Y5114D02*
X1787Y5114D01*
X1791Y5114D02*
X1798Y5114D01*
X1802Y5114D02*
X1807Y5114D01*
X1821Y5114D02*
X1825Y5114D01*
X1842Y5114D02*
X1847Y5114D01*
X1782Y5113D02*
X1807Y5113D01*
X1821Y5113D02*
X1846Y5113D01*
X1783Y5112D02*
X1806Y5112D01*
X1821Y5112D02*
X1846Y5112D01*
X1783Y5111D02*
X1806Y5111D01*
X1821Y5111D02*
X1845Y5111D01*
X1784Y5110D02*
X1805Y5110D01*
X1822Y5110D02*
X1845Y5110D01*
X1784Y5109D02*
X1793Y5109D01*
X1795Y5109D02*
X1804Y5109D01*
X1823Y5109D02*
X1844Y5109D01*
X1786Y5108D02*
X1792Y5108D01*
X1796Y5108D02*
X1803Y5108D01*
X1825Y5108D02*
X1842Y5108D01*
X2416Y5054D02*
X2419Y5054D01*
X2438Y5054D02*
X2440Y5054D01*
X2477Y5054D02*
X2479Y5054D01*
X2495Y5054D02*
X2509Y5054D01*
X2415Y5053D02*
X2420Y5053D01*
X2437Y5053D02*
X2441Y5053D01*
X2476Y5053D02*
X2480Y5053D01*
X2494Y5053D02*
X2511Y5053D01*
X2415Y5052D02*
X2421Y5052D01*
X2437Y5052D02*
X2441Y5052D01*
X2476Y5052D02*
X2480Y5052D01*
X2494Y5052D02*
X2512Y5052D01*
X2415Y5051D02*
X2422Y5051D01*
X2437Y5051D02*
X2441Y5051D01*
X2476Y5051D02*
X2480Y5051D01*
X2494Y5051D02*
X2512Y5051D01*
X1766Y5050D02*
X1792Y5050D01*
X1816Y5050D02*
X1830Y5050D01*
X2416Y5050D02*
X2423Y5050D01*
X2437Y5050D02*
X2441Y5050D01*
X2476Y5050D02*
X2480Y5050D01*
X2495Y5050D02*
X2513Y5050D01*
X1766Y5049D02*
X1792Y5049D01*
X1814Y5049D02*
X1831Y5049D01*
X2417Y5049D02*
X2425Y5049D01*
X2437Y5049D02*
X2441Y5049D01*
X2476Y5049D02*
X2480Y5049D01*
X2507Y5049D02*
X2514Y5049D01*
X1766Y5048D02*
X1792Y5048D01*
X1813Y5048D02*
X1831Y5048D01*
X2418Y5048D02*
X2426Y5048D01*
X2437Y5048D02*
X2441Y5048D01*
X2476Y5048D02*
X2480Y5048D01*
X2509Y5048D02*
X2514Y5048D01*
X1766Y5047D02*
X1792Y5047D01*
X1812Y5047D02*
X1831Y5047D01*
X2419Y5047D02*
X2427Y5047D01*
X2437Y5047D02*
X2441Y5047D01*
X2476Y5047D02*
X2480Y5047D01*
X2509Y5047D02*
X2514Y5047D01*
X1766Y5046D02*
X1792Y5046D01*
X1812Y5046D02*
X1830Y5046D01*
X2421Y5046D02*
X2428Y5046D01*
X2437Y5046D02*
X2441Y5046D01*
X2476Y5046D02*
X2480Y5046D01*
X2510Y5046D02*
X2515Y5046D01*
X1766Y5045D02*
X1770Y5045D01*
X1777Y5045D02*
X1781Y5045D01*
X1787Y5045D02*
X1792Y5045D01*
X1811Y5045D02*
X1817Y5045D01*
X1821Y5045D02*
X1826Y5045D01*
X2422Y5045D02*
X2429Y5045D01*
X2437Y5045D02*
X2441Y5045D01*
X2476Y5045D02*
X2480Y5045D01*
X2510Y5045D02*
X2515Y5045D01*
X1766Y5044D02*
X1770Y5044D01*
X1777Y5044D02*
X1781Y5044D01*
X1787Y5044D02*
X1792Y5044D01*
X1811Y5044D02*
X1816Y5044D01*
X1821Y5044D02*
X1826Y5044D01*
X2423Y5044D02*
X2430Y5044D01*
X2437Y5044D02*
X2441Y5044D01*
X2476Y5044D02*
X2480Y5044D01*
X2511Y5044D02*
X2516Y5044D01*
X1766Y5043D02*
X1770Y5043D01*
X1777Y5043D02*
X1781Y5043D01*
X1788Y5043D02*
X1792Y5043D01*
X1810Y5043D02*
X1815Y5043D01*
X1821Y5043D02*
X1826Y5043D01*
X2424Y5043D02*
X2432Y5043D01*
X2437Y5043D02*
X2441Y5043D01*
X2476Y5043D02*
X2480Y5043D01*
X2511Y5043D02*
X2516Y5043D01*
X1766Y5042D02*
X1770Y5042D01*
X1777Y5042D02*
X1781Y5042D01*
X1788Y5042D02*
X1791Y5042D01*
X1810Y5042D02*
X1815Y5042D01*
X1821Y5042D02*
X1826Y5042D01*
X2425Y5042D02*
X2433Y5042D01*
X2437Y5042D02*
X2441Y5042D01*
X2476Y5042D02*
X2480Y5042D01*
X2512Y5042D02*
X2517Y5042D01*
X1768Y5041D02*
X1769Y5041D01*
X1777Y5041D02*
X1781Y5041D01*
X1789Y5041D02*
X1790Y5041D01*
X1809Y5041D02*
X1814Y5041D01*
X1821Y5041D02*
X1826Y5041D01*
X2426Y5041D02*
X2434Y5041D01*
X2437Y5041D02*
X2441Y5041D01*
X2476Y5041D02*
X2480Y5041D01*
X2512Y5041D02*
X2517Y5041D01*
X1777Y5040D02*
X1781Y5040D01*
X1809Y5040D02*
X1814Y5040D01*
X1821Y5040D02*
X1826Y5040D01*
X2428Y5040D02*
X2435Y5040D01*
X2437Y5040D02*
X2441Y5040D01*
X2476Y5040D02*
X2480Y5040D01*
X2513Y5040D02*
X2518Y5040D01*
X1777Y5039D02*
X1781Y5039D01*
X1808Y5039D02*
X1813Y5039D01*
X1821Y5039D02*
X1826Y5039D01*
X2429Y5039D02*
X2441Y5039D01*
X2476Y5039D02*
X2480Y5039D01*
X2513Y5039D02*
X2518Y5039D01*
X1777Y5038D02*
X1781Y5038D01*
X1808Y5038D02*
X1813Y5038D01*
X1821Y5038D02*
X1826Y5038D01*
X2430Y5038D02*
X2441Y5038D01*
X2476Y5038D02*
X2480Y5038D01*
X2514Y5038D02*
X2519Y5038D01*
X1777Y5037D02*
X1781Y5037D01*
X1807Y5037D02*
X1812Y5037D01*
X1821Y5037D02*
X1826Y5037D01*
X2431Y5037D02*
X2441Y5037D01*
X2476Y5037D02*
X2480Y5037D01*
X2514Y5037D02*
X2519Y5037D01*
X1777Y5036D02*
X1781Y5036D01*
X1807Y5036D02*
X1812Y5036D01*
X1821Y5036D02*
X1826Y5036D01*
X2432Y5036D02*
X2441Y5036D01*
X2476Y5036D02*
X2480Y5036D01*
X2515Y5036D02*
X2519Y5036D01*
X1777Y5035D02*
X1781Y5035D01*
X1806Y5035D02*
X1811Y5035D01*
X1821Y5035D02*
X1826Y5035D01*
X2433Y5035D02*
X2441Y5035D01*
X2476Y5035D02*
X2480Y5035D01*
X2515Y5035D02*
X2520Y5035D01*
X1777Y5034D02*
X1781Y5034D01*
X1806Y5034D02*
X1811Y5034D01*
X1821Y5034D02*
X1826Y5034D01*
X2435Y5034D02*
X2441Y5034D01*
X2476Y5034D02*
X2480Y5034D01*
X2515Y5034D02*
X2520Y5034D01*
X1777Y5033D02*
X1781Y5033D01*
X1806Y5033D02*
X1810Y5033D01*
X1821Y5033D02*
X1826Y5033D01*
X2435Y5033D02*
X2441Y5033D01*
X2476Y5033D02*
X2480Y5033D01*
X2515Y5033D02*
X2520Y5033D01*
X1777Y5032D02*
X1781Y5032D01*
X1805Y5032D02*
X1810Y5032D01*
X1821Y5032D02*
X1826Y5032D01*
X2434Y5032D02*
X2441Y5032D01*
X2476Y5032D02*
X2480Y5032D01*
X2515Y5032D02*
X2520Y5032D01*
X1777Y5031D02*
X1781Y5031D01*
X1805Y5031D02*
X1810Y5031D01*
X1821Y5031D02*
X1826Y5031D01*
X2432Y5031D02*
X2441Y5031D01*
X2476Y5031D02*
X2480Y5031D01*
X2515Y5031D02*
X2519Y5031D01*
X1777Y5030D02*
X1781Y5030D01*
X1805Y5030D02*
X1810Y5030D01*
X1821Y5030D02*
X1826Y5030D01*
X2431Y5030D02*
X2441Y5030D01*
X2476Y5030D02*
X2480Y5030D01*
X2514Y5030D02*
X2519Y5030D01*
X1777Y5029D02*
X1781Y5029D01*
X1805Y5029D02*
X1810Y5029D01*
X1821Y5029D02*
X1826Y5029D01*
X2430Y5029D02*
X2441Y5029D01*
X2476Y5029D02*
X2480Y5029D01*
X2514Y5029D02*
X2519Y5029D01*
X1777Y5028D02*
X1781Y5028D01*
X1805Y5028D02*
X1810Y5028D01*
X1821Y5028D02*
X1826Y5028D01*
X2429Y5028D02*
X2441Y5028D01*
X2476Y5028D02*
X2480Y5028D01*
X2513Y5028D02*
X2518Y5028D01*
X1777Y5027D02*
X1781Y5027D01*
X1805Y5027D02*
X1810Y5027D01*
X1821Y5027D02*
X1826Y5027D01*
X2428Y5027D02*
X2441Y5027D01*
X2476Y5027D02*
X2480Y5027D01*
X2513Y5027D02*
X2518Y5027D01*
X1777Y5026D02*
X1781Y5026D01*
X1806Y5026D02*
X1811Y5026D01*
X1821Y5026D02*
X1826Y5026D01*
X2427Y5026D02*
X2434Y5026D01*
X2437Y5026D02*
X2441Y5026D01*
X2476Y5026D02*
X2480Y5026D01*
X2512Y5026D02*
X2518Y5026D01*
X1777Y5025D02*
X1781Y5025D01*
X1806Y5025D02*
X1811Y5025D01*
X1821Y5025D02*
X1826Y5025D01*
X2425Y5025D02*
X2433Y5025D01*
X2437Y5025D02*
X2441Y5025D01*
X2476Y5025D02*
X2480Y5025D01*
X2512Y5025D02*
X2517Y5025D01*
X1777Y5024D02*
X1781Y5024D01*
X1806Y5024D02*
X1812Y5024D01*
X1821Y5024D02*
X1826Y5024D01*
X2424Y5024D02*
X2432Y5024D01*
X2437Y5024D02*
X2441Y5024D01*
X2476Y5024D02*
X2480Y5024D01*
X2511Y5024D02*
X2516Y5024D01*
X1777Y5023D02*
X1781Y5023D01*
X1807Y5023D02*
X1812Y5023D01*
X1821Y5023D02*
X1826Y5023D01*
X2423Y5023D02*
X2431Y5023D01*
X2437Y5023D02*
X2441Y5023D01*
X2476Y5023D02*
X2480Y5023D01*
X2511Y5023D02*
X2516Y5023D01*
X1777Y5022D02*
X1781Y5022D01*
X1807Y5022D02*
X1813Y5022D01*
X1821Y5022D02*
X1826Y5022D01*
X2422Y5022D02*
X2429Y5022D01*
X2437Y5022D02*
X2441Y5022D01*
X2476Y5022D02*
X2480Y5022D01*
X2510Y5022D02*
X2515Y5022D01*
X1777Y5021D02*
X1781Y5021D01*
X1808Y5021D02*
X1813Y5021D01*
X1821Y5021D02*
X1826Y5021D01*
X2421Y5021D02*
X2428Y5021D01*
X2437Y5021D02*
X2441Y5021D01*
X2476Y5021D02*
X2480Y5021D01*
X2510Y5021D02*
X2515Y5021D01*
X1777Y5020D02*
X1781Y5020D01*
X1808Y5020D02*
X1814Y5020D01*
X1821Y5020D02*
X1826Y5020D01*
X2420Y5020D02*
X2427Y5020D01*
X2437Y5020D02*
X2441Y5020D01*
X2476Y5020D02*
X2480Y5020D01*
X2509Y5020D02*
X2514Y5020D01*
X1777Y5019D02*
X1781Y5019D01*
X1809Y5019D02*
X1814Y5019D01*
X1821Y5019D02*
X1826Y5019D01*
X2418Y5019D02*
X2426Y5019D01*
X2437Y5019D02*
X2441Y5019D01*
X2476Y5019D02*
X2480Y5019D01*
X2509Y5019D02*
X2514Y5019D01*
X1777Y5018D02*
X1781Y5018D01*
X1809Y5018D02*
X1815Y5018D01*
X1821Y5018D02*
X1826Y5018D01*
X2417Y5018D02*
X2425Y5018D01*
X2437Y5018D02*
X2441Y5018D01*
X2476Y5018D02*
X2480Y5018D01*
X2508Y5018D02*
X2513Y5018D01*
X1777Y5017D02*
X1781Y5017D01*
X1810Y5017D02*
X1815Y5017D01*
X1821Y5017D02*
X1826Y5017D01*
X2416Y5017D02*
X2424Y5017D01*
X2437Y5017D02*
X2441Y5017D01*
X2455Y5017D02*
X2480Y5017D01*
X2495Y5017D02*
X2513Y5017D01*
X1777Y5016D02*
X1781Y5016D01*
X1810Y5016D02*
X1816Y5016D01*
X1821Y5016D02*
X1826Y5016D01*
X2415Y5016D02*
X2422Y5016D01*
X2437Y5016D02*
X2441Y5016D01*
X2455Y5016D02*
X2480Y5016D01*
X2494Y5016D02*
X2512Y5016D01*
X1777Y5015D02*
X1781Y5015D01*
X1811Y5015D02*
X1816Y5015D01*
X1821Y5015D02*
X1826Y5015D01*
X2415Y5015D02*
X2421Y5015D01*
X2437Y5015D02*
X2441Y5015D01*
X2454Y5015D02*
X2480Y5015D01*
X2494Y5015D02*
X2512Y5015D01*
X1777Y5014D02*
X1781Y5014D01*
X1811Y5014D02*
X1818Y5014D01*
X1821Y5014D02*
X1826Y5014D01*
X2415Y5014D02*
X2420Y5014D01*
X2437Y5014D02*
X2441Y5014D01*
X2455Y5014D02*
X2480Y5014D01*
X2494Y5014D02*
X2510Y5014D01*
X1777Y5013D02*
X1781Y5013D01*
X1812Y5013D02*
X1830Y5013D01*
X2416Y5013D02*
X2419Y5013D01*
X2438Y5013D02*
X2440Y5013D01*
X2455Y5013D02*
X2480Y5013D01*
X2494Y5013D02*
X2509Y5013D01*
X1777Y5012D02*
X1781Y5012D01*
X1812Y5012D02*
X1831Y5012D01*
X1777Y5011D02*
X1781Y5011D01*
X1813Y5011D02*
X1831Y5011D01*
X1777Y5010D02*
X1781Y5010D01*
X1814Y5010D02*
X1831Y5010D01*
X1778Y5009D02*
X1780Y5009D01*
X1816Y5009D02*
X1830Y5009D01*
X4337Y5000D02*
X4339Y5000D01*
X4376Y5000D02*
X4389Y5000D01*
X4409Y5000D02*
X4426Y5000D01*
X4336Y4999D02*
X4340Y4999D01*
X4374Y4999D02*
X4390Y4999D01*
X4407Y4999D02*
X4427Y4999D01*
X4336Y4998D02*
X4341Y4998D01*
X4373Y4998D02*
X4391Y4998D01*
X4406Y4998D02*
X4428Y4998D01*
X4336Y4997D02*
X4341Y4997D01*
X4372Y4997D02*
X4390Y4997D01*
X4405Y4997D02*
X4429Y4997D01*
X4335Y4996D02*
X4341Y4996D01*
X4371Y4996D02*
X4390Y4996D01*
X4404Y4996D02*
X4430Y4996D01*
X4335Y4995D02*
X4341Y4995D01*
X4371Y4995D02*
X4388Y4995D01*
X4404Y4995D02*
X4430Y4995D01*
X4335Y4994D02*
X4342Y4994D01*
X4370Y4994D02*
X4376Y4994D01*
X4381Y4994D02*
X4385Y4994D01*
X4404Y4994D02*
X4409Y4994D01*
X4425Y4994D02*
X4430Y4994D01*
X4335Y4993D02*
X4342Y4993D01*
X4370Y4993D02*
X4375Y4993D01*
X4381Y4993D02*
X4385Y4993D01*
X4404Y4993D02*
X4408Y4993D01*
X4425Y4993D02*
X4430Y4993D01*
X4334Y4992D02*
X4342Y4992D01*
X4369Y4992D02*
X4375Y4992D01*
X4381Y4992D02*
X4385Y4992D01*
X4404Y4992D02*
X4408Y4992D01*
X4424Y4992D02*
X4429Y4992D01*
X4334Y4991D02*
X4343Y4991D01*
X4369Y4991D02*
X4374Y4991D01*
X4381Y4991D02*
X4385Y4991D01*
X4405Y4991D02*
X4407Y4991D01*
X4423Y4991D02*
X4429Y4991D01*
X4334Y4990D02*
X4343Y4990D01*
X4368Y4990D02*
X4374Y4990D01*
X4381Y4990D02*
X4385Y4990D01*
X4422Y4990D02*
X4428Y4990D01*
X4333Y4989D02*
X4343Y4989D01*
X4368Y4989D02*
X4373Y4989D01*
X4381Y4989D02*
X4385Y4989D01*
X4421Y4989D02*
X4428Y4989D01*
X4333Y4988D02*
X4344Y4988D01*
X4367Y4988D02*
X4373Y4988D01*
X4381Y4988D02*
X4385Y4988D01*
X4421Y4988D02*
X4427Y4988D01*
X4333Y4987D02*
X4344Y4987D01*
X4367Y4987D02*
X4372Y4987D01*
X4381Y4987D02*
X4385Y4987D01*
X4420Y4987D02*
X4426Y4987D01*
X4333Y4986D02*
X4337Y4986D01*
X4339Y4986D02*
X4344Y4986D01*
X4366Y4986D02*
X4372Y4986D01*
X4381Y4986D02*
X4385Y4986D01*
X4419Y4986D02*
X4425Y4986D01*
X4332Y4985D02*
X4337Y4985D01*
X4340Y4985D02*
X4344Y4985D01*
X4366Y4985D02*
X4371Y4985D01*
X4381Y4985D02*
X4385Y4985D01*
X4418Y4985D02*
X4424Y4985D01*
X4332Y4984D02*
X4337Y4984D01*
X4340Y4984D02*
X4345Y4984D01*
X4366Y4984D02*
X4371Y4984D01*
X4381Y4984D02*
X4385Y4984D01*
X4418Y4984D02*
X4424Y4984D01*
X4332Y4983D02*
X4336Y4983D01*
X4340Y4983D02*
X4345Y4983D01*
X4365Y4983D02*
X4370Y4983D01*
X4381Y4983D02*
X4385Y4983D01*
X4417Y4983D02*
X4423Y4983D01*
X4331Y4982D02*
X4336Y4982D01*
X4341Y4982D02*
X4345Y4982D01*
X4365Y4982D02*
X4370Y4982D01*
X4381Y4982D02*
X4385Y4982D01*
X4416Y4982D02*
X4422Y4982D01*
X4331Y4981D02*
X4336Y4981D01*
X4341Y4981D02*
X4346Y4981D01*
X4365Y4981D02*
X4369Y4981D01*
X4381Y4981D02*
X4385Y4981D01*
X4415Y4981D02*
X4421Y4981D01*
X4331Y4980D02*
X4336Y4980D01*
X4341Y4980D02*
X4346Y4980D01*
X4365Y4980D02*
X4369Y4980D01*
X4381Y4980D02*
X4385Y4980D01*
X4414Y4980D02*
X4421Y4980D01*
X4330Y4979D02*
X4335Y4979D01*
X4341Y4979D02*
X4346Y4979D01*
X4365Y4979D02*
X4369Y4979D01*
X4381Y4979D02*
X4385Y4979D01*
X4414Y4979D02*
X4420Y4979D01*
X4330Y4978D02*
X4335Y4978D01*
X4342Y4978D02*
X4346Y4978D01*
X4365Y4978D02*
X4369Y4978D01*
X4381Y4978D02*
X4385Y4978D01*
X4413Y4978D02*
X4419Y4978D01*
X4330Y4977D02*
X4335Y4977D01*
X4342Y4977D02*
X4347Y4977D01*
X4365Y4977D02*
X4369Y4977D01*
X4381Y4977D02*
X4385Y4977D01*
X4412Y4977D02*
X4418Y4977D01*
X4330Y4976D02*
X4334Y4976D01*
X4342Y4976D02*
X4347Y4976D01*
X4365Y4976D02*
X4370Y4976D01*
X4381Y4976D02*
X4385Y4976D01*
X4411Y4976D02*
X4417Y4976D01*
X4329Y4975D02*
X4334Y4975D01*
X4343Y4975D02*
X4347Y4975D01*
X4365Y4975D02*
X4370Y4975D01*
X4381Y4975D02*
X4385Y4975D01*
X4411Y4975D02*
X4417Y4975D01*
X4329Y4974D02*
X4334Y4974D01*
X4343Y4974D02*
X4348Y4974D01*
X4366Y4974D02*
X4371Y4974D01*
X4381Y4974D02*
X4385Y4974D01*
X4410Y4974D02*
X4416Y4974D01*
X4329Y4973D02*
X4334Y4973D01*
X4343Y4973D02*
X4348Y4973D01*
X4366Y4973D02*
X4371Y4973D01*
X4381Y4973D02*
X4385Y4973D01*
X4409Y4973D02*
X4415Y4973D01*
X4328Y4972D02*
X4348Y4972D01*
X4367Y4972D02*
X4372Y4972D01*
X4381Y4972D02*
X4385Y4972D01*
X4408Y4972D02*
X4414Y4972D01*
X4328Y4971D02*
X4349Y4971D01*
X4367Y4971D02*
X4372Y4971D01*
X4381Y4971D02*
X4385Y4971D01*
X4407Y4971D02*
X4414Y4971D01*
X4328Y4970D02*
X4349Y4970D01*
X4368Y4970D02*
X4373Y4970D01*
X4381Y4970D02*
X4385Y4970D01*
X4407Y4970D02*
X4413Y4970D01*
X4328Y4969D02*
X4349Y4969D01*
X4368Y4969D02*
X4373Y4969D01*
X4381Y4969D02*
X4385Y4969D01*
X4406Y4969D02*
X4412Y4969D01*
X4327Y4968D02*
X4349Y4968D01*
X4369Y4968D02*
X4374Y4968D01*
X4381Y4968D02*
X4385Y4968D01*
X4405Y4968D02*
X4411Y4968D01*
X4327Y4967D02*
X4332Y4967D01*
X4345Y4967D02*
X4350Y4967D01*
X4369Y4967D02*
X4374Y4967D01*
X4381Y4967D02*
X4385Y4967D01*
X4405Y4967D02*
X4410Y4967D01*
X4426Y4967D02*
X4429Y4967D01*
X4327Y4966D02*
X4331Y4966D01*
X4345Y4966D02*
X4350Y4966D01*
X4370Y4966D02*
X4375Y4966D01*
X4381Y4966D02*
X4385Y4966D01*
X4404Y4966D02*
X4410Y4966D01*
X4425Y4966D02*
X4430Y4966D01*
X4326Y4965D02*
X4331Y4965D01*
X4346Y4965D02*
X4350Y4965D01*
X4370Y4965D02*
X4375Y4965D01*
X4381Y4965D02*
X4385Y4965D01*
X4404Y4965D02*
X4409Y4965D01*
X4425Y4965D02*
X4430Y4965D01*
X4326Y4964D02*
X4331Y4964D01*
X4346Y4964D02*
X4351Y4964D01*
X4371Y4964D02*
X4376Y4964D01*
X4381Y4964D02*
X4385Y4964D01*
X4404Y4964D02*
X4408Y4964D01*
X4425Y4964D02*
X4430Y4964D01*
X4326Y4963D02*
X4331Y4963D01*
X4346Y4963D02*
X4351Y4963D01*
X4371Y4963D02*
X4389Y4963D01*
X4404Y4963D02*
X4429Y4963D01*
X4326Y4962D02*
X4330Y4962D01*
X4346Y4962D02*
X4351Y4962D01*
X4372Y4962D02*
X4390Y4962D01*
X4404Y4962D02*
X4429Y4962D01*
X4325Y4961D02*
X4330Y4961D01*
X4347Y4961D02*
X4351Y4961D01*
X4372Y4961D02*
X4391Y4961D01*
X4405Y4961D02*
X4428Y4961D01*
X4325Y4960D02*
X4330Y4960D01*
X4347Y4960D02*
X4351Y4960D01*
X4373Y4960D02*
X4390Y4960D01*
X4405Y4960D02*
X4428Y4960D01*
X4326Y4959D02*
X4329Y4959D01*
X4348Y4959D02*
X4351Y4959D01*
X4375Y4959D02*
X4390Y4959D01*
X4407Y4959D02*
X4426Y4959D01*
X1787Y4958D02*
X1789Y4958D01*
X1808Y4958D02*
X1810Y4958D01*
X1847Y4958D02*
X1850Y4958D01*
X1865Y4958D02*
X1879Y4958D01*
X4349Y4958D02*
X4349Y4958D01*
X4378Y4958D02*
X4388Y4958D01*
X4409Y4958D02*
X4423Y4958D01*
X1786Y4957D02*
X1790Y4957D01*
X1807Y4957D02*
X1811Y4957D01*
X1847Y4957D02*
X1850Y4957D01*
X1864Y4957D02*
X1881Y4957D01*
X2453Y4957D02*
X2479Y4957D01*
X2503Y4957D02*
X2518Y4957D01*
X1785Y4956D02*
X1791Y4956D01*
X1807Y4956D02*
X1811Y4956D01*
X1846Y4956D02*
X1851Y4956D01*
X1864Y4956D02*
X1882Y4956D01*
X2453Y4956D02*
X2479Y4956D01*
X2502Y4956D02*
X2518Y4956D01*
X1786Y4955D02*
X1792Y4955D01*
X1807Y4955D02*
X1812Y4955D01*
X1846Y4955D02*
X1851Y4955D01*
X1864Y4955D02*
X1883Y4955D01*
X2453Y4955D02*
X2479Y4955D01*
X2501Y4955D02*
X2519Y4955D01*
X1786Y4954D02*
X1794Y4954D01*
X1807Y4954D02*
X1812Y4954D01*
X1846Y4954D02*
X1851Y4954D01*
X1865Y4954D02*
X1883Y4954D01*
X2453Y4954D02*
X2479Y4954D01*
X2500Y4954D02*
X2518Y4954D01*
X1787Y4953D02*
X1795Y4953D01*
X1807Y4953D02*
X1812Y4953D01*
X1846Y4953D02*
X1851Y4953D01*
X1877Y4953D02*
X1884Y4953D01*
X2453Y4953D02*
X2479Y4953D01*
X2499Y4953D02*
X2517Y4953D01*
X1788Y4952D02*
X1796Y4952D01*
X1807Y4952D02*
X1812Y4952D01*
X1846Y4952D02*
X1851Y4952D01*
X1879Y4952D02*
X1884Y4952D01*
X2453Y4952D02*
X2458Y4952D01*
X2464Y4952D02*
X2469Y4952D01*
X2475Y4952D02*
X2479Y4952D01*
X2499Y4952D02*
X2504Y4952D01*
X2509Y4952D02*
X2513Y4952D01*
X1790Y4951D02*
X1797Y4951D01*
X1807Y4951D02*
X1812Y4951D01*
X1846Y4951D02*
X1851Y4951D01*
X1879Y4951D02*
X1885Y4951D01*
X2453Y4951D02*
X2458Y4951D01*
X2464Y4951D02*
X2469Y4951D01*
X2475Y4951D02*
X2479Y4951D01*
X2498Y4951D02*
X2503Y4951D01*
X2509Y4951D02*
X2513Y4951D01*
X1791Y4950D02*
X1798Y4950D01*
X1807Y4950D02*
X1812Y4950D01*
X1846Y4950D02*
X1851Y4950D01*
X1880Y4950D02*
X1885Y4950D01*
X2453Y4950D02*
X2458Y4950D01*
X2464Y4950D02*
X2469Y4950D01*
X2475Y4950D02*
X2479Y4950D01*
X2498Y4950D02*
X2503Y4950D01*
X2509Y4950D02*
X2513Y4950D01*
X1792Y4949D02*
X1799Y4949D01*
X1807Y4949D02*
X1812Y4949D01*
X1846Y4949D02*
X1851Y4949D01*
X1880Y4949D02*
X1886Y4949D01*
X2454Y4949D02*
X2457Y4949D01*
X2464Y4949D02*
X2469Y4949D01*
X2475Y4949D02*
X2479Y4949D01*
X2497Y4949D02*
X2502Y4949D01*
X2509Y4949D02*
X2513Y4949D01*
X1793Y4948D02*
X1801Y4948D01*
X1807Y4948D02*
X1812Y4948D01*
X1846Y4948D02*
X1851Y4948D01*
X1881Y4948D02*
X1886Y4948D01*
X2455Y4948D02*
X2456Y4948D01*
X2464Y4948D02*
X2469Y4948D01*
X2477Y4948D02*
X2478Y4948D01*
X2497Y4948D02*
X2502Y4948D01*
X2509Y4948D02*
X2513Y4948D01*
X1794Y4947D02*
X1802Y4947D01*
X1807Y4947D02*
X1812Y4947D01*
X1846Y4947D02*
X1851Y4947D01*
X1881Y4947D02*
X1887Y4947D01*
X2464Y4947D02*
X2469Y4947D01*
X2496Y4947D02*
X2501Y4947D01*
X2509Y4947D02*
X2513Y4947D01*
X1795Y4946D02*
X1803Y4946D01*
X1807Y4946D02*
X1812Y4946D01*
X1846Y4946D02*
X1851Y4946D01*
X1882Y4946D02*
X1887Y4946D01*
X2464Y4946D02*
X2469Y4946D01*
X2496Y4946D02*
X2501Y4946D01*
X2509Y4946D02*
X2513Y4946D01*
X1797Y4945D02*
X1804Y4945D01*
X1807Y4945D02*
X1812Y4945D01*
X1846Y4945D02*
X1851Y4945D01*
X1883Y4945D02*
X1888Y4945D01*
X2464Y4945D02*
X2469Y4945D01*
X2495Y4945D02*
X2500Y4945D01*
X2509Y4945D02*
X2513Y4945D01*
X1798Y4944D02*
X1805Y4944D01*
X1807Y4944D02*
X1812Y4944D01*
X1846Y4944D02*
X1851Y4944D01*
X1883Y4944D02*
X1888Y4944D01*
X2464Y4944D02*
X2469Y4944D01*
X2495Y4944D02*
X2500Y4944D01*
X2509Y4944D02*
X2513Y4944D01*
X1799Y4943D02*
X1812Y4943D01*
X1846Y4943D02*
X1851Y4943D01*
X1884Y4943D02*
X1889Y4943D01*
X2464Y4943D02*
X2469Y4943D01*
X2494Y4943D02*
X2499Y4943D01*
X2509Y4943D02*
X2513Y4943D01*
X1800Y4942D02*
X1812Y4942D01*
X1846Y4942D02*
X1851Y4942D01*
X1884Y4942D02*
X1889Y4942D01*
X2464Y4942D02*
X2469Y4942D01*
X2494Y4942D02*
X2499Y4942D01*
X2509Y4942D02*
X2513Y4942D01*
X1801Y4941D02*
X1812Y4941D01*
X1846Y4941D02*
X1851Y4941D01*
X1885Y4941D02*
X1889Y4941D01*
X2464Y4941D02*
X2469Y4941D01*
X2493Y4941D02*
X2498Y4941D01*
X2509Y4941D02*
X2513Y4941D01*
X1802Y4940D02*
X1812Y4940D01*
X1846Y4940D02*
X1851Y4940D01*
X1885Y4940D02*
X1890Y4940D01*
X2464Y4940D02*
X2469Y4940D01*
X2493Y4940D02*
X2498Y4940D01*
X2509Y4940D02*
X2513Y4940D01*
X1804Y4939D02*
X1812Y4939D01*
X1846Y4939D02*
X1851Y4939D01*
X1885Y4939D02*
X1890Y4939D01*
X2464Y4939D02*
X2469Y4939D01*
X2493Y4939D02*
X2497Y4939D01*
X2509Y4939D02*
X2513Y4939D01*
X1805Y4938D02*
X1812Y4938D01*
X1846Y4938D02*
X1851Y4938D01*
X1885Y4938D02*
X1890Y4938D01*
X2464Y4938D02*
X2469Y4938D01*
X2493Y4938D02*
X2497Y4938D01*
X2509Y4938D02*
X2513Y4938D01*
X1805Y4937D02*
X1812Y4937D01*
X1846Y4937D02*
X1851Y4937D01*
X1885Y4937D02*
X1890Y4937D01*
X2464Y4937D02*
X2469Y4937D01*
X2493Y4937D02*
X2497Y4937D01*
X2509Y4937D02*
X2513Y4937D01*
X1804Y4936D02*
X1812Y4936D01*
X1846Y4936D02*
X1851Y4936D01*
X1885Y4936D02*
X1890Y4936D01*
X2464Y4936D02*
X2469Y4936D01*
X2493Y4936D02*
X2497Y4936D01*
X2509Y4936D02*
X2513Y4936D01*
X1803Y4935D02*
X1812Y4935D01*
X1846Y4935D02*
X1851Y4935D01*
X1885Y4935D02*
X1890Y4935D01*
X2464Y4935D02*
X2469Y4935D01*
X2493Y4935D02*
X2497Y4935D01*
X2509Y4935D02*
X2513Y4935D01*
X1802Y4934D02*
X1812Y4934D01*
X1846Y4934D02*
X1851Y4934D01*
X1885Y4934D02*
X1889Y4934D01*
X2464Y4934D02*
X2469Y4934D01*
X2493Y4934D02*
X2498Y4934D01*
X2509Y4934D02*
X2513Y4934D01*
X1800Y4933D02*
X1812Y4933D01*
X1846Y4933D02*
X1851Y4933D01*
X1884Y4933D02*
X1889Y4933D01*
X2464Y4933D02*
X2469Y4933D01*
X2493Y4933D02*
X2498Y4933D01*
X2509Y4933D02*
X2513Y4933D01*
X1799Y4932D02*
X1812Y4932D01*
X1846Y4932D02*
X1851Y4932D01*
X1884Y4932D02*
X1889Y4932D01*
X2464Y4932D02*
X2469Y4932D01*
X2494Y4932D02*
X2499Y4932D01*
X2509Y4932D02*
X2513Y4932D01*
X1798Y4931D02*
X1812Y4931D01*
X1846Y4931D02*
X1851Y4931D01*
X1883Y4931D02*
X1888Y4931D01*
X2464Y4931D02*
X2469Y4931D01*
X2494Y4931D02*
X2499Y4931D01*
X2509Y4931D02*
X2513Y4931D01*
X1797Y4930D02*
X1804Y4930D01*
X1807Y4930D02*
X1812Y4930D01*
X1846Y4930D02*
X1851Y4930D01*
X1883Y4930D02*
X1888Y4930D01*
X2464Y4930D02*
X2469Y4930D01*
X2494Y4930D02*
X2500Y4930D01*
X2509Y4930D02*
X2513Y4930D01*
X1796Y4929D02*
X1803Y4929D01*
X1807Y4929D02*
X1812Y4929D01*
X1846Y4929D02*
X1851Y4929D01*
X1882Y4929D02*
X1887Y4929D01*
X2464Y4929D02*
X2469Y4929D01*
X2495Y4929D02*
X2500Y4929D01*
X2509Y4929D02*
X2513Y4929D01*
X1795Y4928D02*
X1802Y4928D01*
X1807Y4928D02*
X1812Y4928D01*
X1846Y4928D02*
X1851Y4928D01*
X1882Y4928D02*
X1887Y4928D01*
X2464Y4928D02*
X2469Y4928D01*
X2495Y4928D02*
X2501Y4928D01*
X2509Y4928D02*
X2513Y4928D01*
X1793Y4927D02*
X1801Y4927D01*
X1807Y4927D02*
X1812Y4927D01*
X1846Y4927D02*
X1851Y4927D01*
X1881Y4927D02*
X1886Y4927D01*
X2464Y4927D02*
X2469Y4927D01*
X2496Y4927D02*
X2501Y4927D01*
X2509Y4927D02*
X2513Y4927D01*
X1792Y4926D02*
X1800Y4926D01*
X1807Y4926D02*
X1812Y4926D01*
X1846Y4926D02*
X1851Y4926D01*
X1881Y4926D02*
X1886Y4926D01*
X2464Y4926D02*
X2469Y4926D01*
X2496Y4926D02*
X2502Y4926D01*
X2509Y4926D02*
X2513Y4926D01*
X1791Y4925D02*
X1799Y4925D01*
X1807Y4925D02*
X1812Y4925D01*
X1846Y4925D02*
X1851Y4925D01*
X1880Y4925D02*
X1885Y4925D01*
X2464Y4925D02*
X2469Y4925D01*
X2497Y4925D02*
X2502Y4925D01*
X2509Y4925D02*
X2513Y4925D01*
X1790Y4924D02*
X1797Y4924D01*
X1807Y4924D02*
X1812Y4924D01*
X1846Y4924D02*
X1851Y4924D01*
X1880Y4924D02*
X1885Y4924D01*
X2464Y4924D02*
X2469Y4924D01*
X2497Y4924D02*
X2503Y4924D01*
X2509Y4924D02*
X2513Y4924D01*
X1789Y4923D02*
X1796Y4923D01*
X1807Y4923D02*
X1812Y4923D01*
X1846Y4923D02*
X1851Y4923D01*
X1879Y4923D02*
X1884Y4923D01*
X2464Y4923D02*
X2469Y4923D01*
X2498Y4923D02*
X2503Y4923D01*
X2509Y4923D02*
X2513Y4923D01*
X1788Y4922D02*
X1795Y4922D01*
X1807Y4922D02*
X1812Y4922D01*
X1846Y4922D02*
X1851Y4922D01*
X1878Y4922D02*
X1884Y4922D01*
X2464Y4922D02*
X2469Y4922D01*
X2498Y4922D02*
X2504Y4922D01*
X2509Y4922D02*
X2513Y4922D01*
X1786Y4921D02*
X1794Y4921D01*
X1807Y4921D02*
X1812Y4921D01*
X1826Y4921D02*
X1851Y4921D01*
X1865Y4921D02*
X1883Y4921D01*
X2464Y4921D02*
X2469Y4921D01*
X2499Y4921D02*
X2506Y4921D01*
X2508Y4921D02*
X2514Y4921D01*
X1786Y4920D02*
X1793Y4920D01*
X1807Y4920D02*
X1812Y4920D01*
X1825Y4920D02*
X1851Y4920D01*
X1864Y4920D02*
X1883Y4920D01*
X2464Y4920D02*
X2469Y4920D01*
X2499Y4920D02*
X2518Y4920D01*
X1785Y4919D02*
X1792Y4919D01*
X1807Y4919D02*
X1812Y4919D01*
X1825Y4919D02*
X1851Y4919D01*
X1864Y4919D02*
X1882Y4919D01*
X2464Y4919D02*
X2469Y4919D01*
X2500Y4919D02*
X2518Y4919D01*
X1786Y4918D02*
X1790Y4918D01*
X1807Y4918D02*
X1811Y4918D01*
X1825Y4918D02*
X1851Y4918D01*
X1864Y4918D02*
X1881Y4918D01*
X2464Y4918D02*
X2469Y4918D01*
X2501Y4918D02*
X2519Y4918D01*
X1786Y4917D02*
X1789Y4917D01*
X1808Y4917D02*
X1811Y4917D01*
X1825Y4917D02*
X1851Y4917D01*
X1865Y4917D02*
X1879Y4917D01*
X2464Y4917D02*
X2468Y4917D01*
X2502Y4917D02*
X2518Y4917D01*
X2465Y4916D02*
X2467Y4916D01*
X2504Y4916D02*
X2517Y4916D01*
X2455Y4860D02*
X2458Y4860D01*
X2477Y4860D02*
X2479Y4860D01*
X2498Y4860D02*
X2516Y4860D01*
X2454Y4859D02*
X2458Y4859D01*
X2476Y4859D02*
X2480Y4859D01*
X2496Y4859D02*
X2518Y4859D01*
X2454Y4858D02*
X2459Y4858D01*
X2476Y4858D02*
X2480Y4858D01*
X2495Y4858D02*
X2518Y4858D01*
X2454Y4857D02*
X2459Y4857D01*
X2476Y4857D02*
X2480Y4857D01*
X2494Y4857D02*
X2519Y4857D01*
X2454Y4856D02*
X2459Y4856D01*
X2476Y4856D02*
X2480Y4856D01*
X2494Y4856D02*
X2519Y4856D01*
X2454Y4855D02*
X2459Y4855D01*
X2476Y4855D02*
X2480Y4855D01*
X2494Y4855D02*
X2499Y4855D01*
X2515Y4855D02*
X2520Y4855D01*
X2454Y4854D02*
X2459Y4854D01*
X2476Y4854D02*
X2480Y4854D01*
X2493Y4854D02*
X2498Y4854D01*
X2515Y4854D02*
X2519Y4854D01*
X2454Y4853D02*
X2459Y4853D01*
X2476Y4853D02*
X2480Y4853D01*
X2493Y4853D02*
X2498Y4853D01*
X2514Y4853D02*
X2519Y4853D01*
X2454Y4852D02*
X2459Y4852D01*
X2476Y4852D02*
X2480Y4852D01*
X2494Y4852D02*
X2498Y4852D01*
X2513Y4852D02*
X2519Y4852D01*
X4353Y4852D02*
X4355Y4852D01*
X4371Y4852D02*
X4384Y4852D01*
X4413Y4852D02*
X4431Y4852D01*
X2454Y4851D02*
X2459Y4851D01*
X2476Y4851D02*
X2480Y4851D01*
X2495Y4851D02*
X2497Y4851D01*
X2513Y4851D02*
X2518Y4851D01*
X4352Y4851D02*
X4356Y4851D01*
X4370Y4851D02*
X4386Y4851D01*
X4412Y4851D02*
X4433Y4851D01*
X2454Y4850D02*
X2459Y4850D01*
X2476Y4850D02*
X2480Y4850D01*
X2512Y4850D02*
X2518Y4850D01*
X4352Y4850D02*
X4356Y4850D01*
X4370Y4850D02*
X4387Y4850D01*
X4411Y4850D02*
X4434Y4850D01*
X2454Y4849D02*
X2459Y4849D01*
X2476Y4849D02*
X2480Y4849D01*
X2511Y4849D02*
X2517Y4849D01*
X4352Y4849D02*
X4356Y4849D01*
X4370Y4849D02*
X4388Y4849D01*
X4410Y4849D02*
X4434Y4849D01*
X2454Y4848D02*
X2459Y4848D01*
X2476Y4848D02*
X2480Y4848D01*
X2510Y4848D02*
X2516Y4848D01*
X4352Y4848D02*
X4356Y4848D01*
X4370Y4848D02*
X4389Y4848D01*
X4409Y4848D02*
X4435Y4848D01*
X2454Y4847D02*
X2459Y4847D01*
X2476Y4847D02*
X2480Y4847D01*
X2509Y4847D02*
X2515Y4847D01*
X4352Y4847D02*
X4356Y4847D01*
X4383Y4847D02*
X4389Y4847D01*
X4409Y4847D02*
X4415Y4847D01*
X4430Y4847D02*
X4435Y4847D01*
X2454Y4846D02*
X2459Y4846D01*
X2466Y4846D02*
X2469Y4846D01*
X2476Y4846D02*
X2480Y4846D01*
X2509Y4846D02*
X2515Y4846D01*
X4352Y4846D02*
X4356Y4846D01*
X4384Y4846D02*
X4390Y4846D01*
X4409Y4846D02*
X4413Y4846D01*
X4430Y4846D02*
X4435Y4846D01*
X2454Y4845D02*
X2459Y4845D01*
X2465Y4845D02*
X2469Y4845D01*
X2476Y4845D02*
X2480Y4845D01*
X2508Y4845D02*
X2514Y4845D01*
X4352Y4845D02*
X4356Y4845D01*
X4385Y4845D02*
X4390Y4845D01*
X4409Y4845D02*
X4413Y4845D01*
X4429Y4845D02*
X4435Y4845D01*
X2454Y4844D02*
X2459Y4844D01*
X2465Y4844D02*
X2469Y4844D01*
X2476Y4844D02*
X2480Y4844D01*
X2507Y4844D02*
X2513Y4844D01*
X4352Y4844D02*
X4356Y4844D01*
X4386Y4844D02*
X4391Y4844D01*
X4409Y4844D02*
X4413Y4844D01*
X4429Y4844D02*
X4434Y4844D01*
X2454Y4843D02*
X2459Y4843D01*
X2465Y4843D02*
X2470Y4843D01*
X2476Y4843D02*
X2480Y4843D01*
X2506Y4843D02*
X2512Y4843D01*
X4352Y4843D02*
X4356Y4843D01*
X4386Y4843D02*
X4391Y4843D01*
X4410Y4843D02*
X4412Y4843D01*
X4428Y4843D02*
X4434Y4843D01*
X2454Y4842D02*
X2459Y4842D01*
X2465Y4842D02*
X2470Y4842D01*
X2476Y4842D02*
X2480Y4842D01*
X2506Y4842D02*
X2512Y4842D01*
X4352Y4842D02*
X4356Y4842D01*
X4387Y4842D02*
X4392Y4842D01*
X4427Y4842D02*
X4433Y4842D01*
X2454Y4841D02*
X2459Y4841D01*
X2465Y4841D02*
X2470Y4841D01*
X2476Y4841D02*
X2480Y4841D01*
X2505Y4841D02*
X2511Y4841D01*
X4352Y4841D02*
X4356Y4841D01*
X4387Y4841D02*
X4392Y4841D01*
X4426Y4841D02*
X4432Y4841D01*
X2454Y4840D02*
X2459Y4840D01*
X2465Y4840D02*
X2470Y4840D01*
X2476Y4840D02*
X2480Y4840D01*
X2504Y4840D02*
X2510Y4840D01*
X4352Y4840D02*
X4356Y4840D01*
X4388Y4840D02*
X4393Y4840D01*
X4426Y4840D02*
X4432Y4840D01*
X2454Y4839D02*
X2459Y4839D01*
X2465Y4839D02*
X2470Y4839D01*
X2476Y4839D02*
X2480Y4839D01*
X2503Y4839D02*
X2509Y4839D01*
X4352Y4839D02*
X4356Y4839D01*
X4388Y4839D02*
X4393Y4839D01*
X4425Y4839D02*
X4431Y4839D01*
X2454Y4838D02*
X2459Y4838D01*
X2465Y4838D02*
X2470Y4838D01*
X2476Y4838D02*
X2480Y4838D01*
X2502Y4838D02*
X2508Y4838D01*
X4352Y4838D02*
X4356Y4838D01*
X4389Y4838D02*
X4394Y4838D01*
X4424Y4838D02*
X4430Y4838D01*
X2454Y4837D02*
X2459Y4837D01*
X2465Y4837D02*
X2470Y4837D01*
X2476Y4837D02*
X2480Y4837D01*
X2502Y4837D02*
X2508Y4837D01*
X4352Y4837D02*
X4356Y4837D01*
X4389Y4837D02*
X4394Y4837D01*
X4423Y4837D02*
X4429Y4837D01*
X2454Y4836D02*
X2459Y4836D01*
X2465Y4836D02*
X2470Y4836D01*
X2476Y4836D02*
X2480Y4836D01*
X2501Y4836D02*
X2507Y4836D01*
X4352Y4836D02*
X4356Y4836D01*
X4390Y4836D02*
X4395Y4836D01*
X4422Y4836D02*
X4429Y4836D01*
X2454Y4835D02*
X2459Y4835D01*
X2465Y4835D02*
X2470Y4835D01*
X2476Y4835D02*
X2480Y4835D01*
X2500Y4835D02*
X2506Y4835D01*
X4352Y4835D02*
X4356Y4835D01*
X4390Y4835D02*
X4395Y4835D01*
X4422Y4835D02*
X4428Y4835D01*
X2454Y4834D02*
X2459Y4834D01*
X2465Y4834D02*
X2470Y4834D01*
X2476Y4834D02*
X2480Y4834D01*
X2499Y4834D02*
X2505Y4834D01*
X4352Y4834D02*
X4356Y4834D01*
X4391Y4834D02*
X4395Y4834D01*
X4421Y4834D02*
X4427Y4834D01*
X2454Y4833D02*
X2459Y4833D01*
X2465Y4833D02*
X2470Y4833D01*
X2476Y4833D02*
X2480Y4833D01*
X2499Y4833D02*
X2505Y4833D01*
X4352Y4833D02*
X4356Y4833D01*
X4391Y4833D02*
X4395Y4833D01*
X4420Y4833D02*
X4426Y4833D01*
X2454Y4832D02*
X2459Y4832D01*
X2465Y4832D02*
X2470Y4832D01*
X2476Y4832D02*
X2480Y4832D01*
X2498Y4832D02*
X2504Y4832D01*
X4352Y4832D02*
X4356Y4832D01*
X4391Y4832D02*
X4396Y4832D01*
X4419Y4832D02*
X4425Y4832D01*
X2454Y4831D02*
X2459Y4831D01*
X2465Y4831D02*
X2470Y4831D01*
X2476Y4831D02*
X2480Y4831D01*
X2497Y4831D02*
X2503Y4831D01*
X4352Y4831D02*
X4356Y4831D01*
X4391Y4831D02*
X4396Y4831D01*
X4419Y4831D02*
X4425Y4831D01*
X2454Y4830D02*
X2459Y4830D01*
X2465Y4830D02*
X2470Y4830D01*
X2476Y4830D02*
X2480Y4830D01*
X2496Y4830D02*
X2502Y4830D01*
X4352Y4830D02*
X4356Y4830D01*
X4391Y4830D02*
X4395Y4830D01*
X4418Y4830D02*
X4424Y4830D01*
X2454Y4829D02*
X2459Y4829D01*
X2465Y4829D02*
X2470Y4829D01*
X2476Y4829D02*
X2480Y4829D01*
X2495Y4829D02*
X2501Y4829D01*
X4352Y4829D02*
X4356Y4829D01*
X4391Y4829D02*
X4395Y4829D01*
X4417Y4829D02*
X4423Y4829D01*
X2454Y4828D02*
X2459Y4828D01*
X2465Y4828D02*
X2470Y4828D01*
X2476Y4828D02*
X2480Y4828D01*
X2495Y4828D02*
X2501Y4828D01*
X2517Y4828D02*
X2518Y4828D01*
X4352Y4828D02*
X4356Y4828D01*
X4390Y4828D02*
X4395Y4828D01*
X4416Y4828D02*
X4422Y4828D01*
X2454Y4827D02*
X2459Y4827D01*
X2465Y4827D02*
X2470Y4827D01*
X2476Y4827D02*
X2480Y4827D01*
X2494Y4827D02*
X2500Y4827D01*
X2516Y4827D02*
X2519Y4827D01*
X4352Y4827D02*
X4356Y4827D01*
X4390Y4827D02*
X4395Y4827D01*
X4415Y4827D02*
X4422Y4827D01*
X2454Y4826D02*
X2459Y4826D01*
X2465Y4826D02*
X2470Y4826D01*
X2476Y4826D02*
X2480Y4826D01*
X2494Y4826D02*
X2499Y4826D01*
X2515Y4826D02*
X2519Y4826D01*
X4352Y4826D02*
X4356Y4826D01*
X4389Y4826D02*
X4394Y4826D01*
X4415Y4826D02*
X4421Y4826D01*
X2454Y4825D02*
X2459Y4825D01*
X2464Y4825D02*
X2470Y4825D01*
X2475Y4825D02*
X2480Y4825D01*
X2494Y4825D02*
X2498Y4825D01*
X2515Y4825D02*
X2520Y4825D01*
X4352Y4825D02*
X4356Y4825D01*
X4389Y4825D02*
X4394Y4825D01*
X4414Y4825D02*
X4420Y4825D01*
X2455Y4824D02*
X2460Y4824D01*
X2464Y4824D02*
X2471Y4824D01*
X2474Y4824D02*
X2480Y4824D01*
X2493Y4824D02*
X2498Y4824D01*
X2514Y4824D02*
X2519Y4824D01*
X4352Y4824D02*
X4356Y4824D01*
X4388Y4824D02*
X4393Y4824D01*
X4413Y4824D02*
X4419Y4824D01*
X2455Y4823D02*
X2479Y4823D01*
X2494Y4823D02*
X2519Y4823D01*
X4352Y4823D02*
X4356Y4823D01*
X4388Y4823D02*
X4393Y4823D01*
X4412Y4823D02*
X4418Y4823D01*
X2456Y4822D02*
X2479Y4822D01*
X2494Y4822D02*
X2519Y4822D01*
X4352Y4822D02*
X4356Y4822D01*
X4387Y4822D02*
X4392Y4822D01*
X4412Y4822D02*
X4418Y4822D01*
X2456Y4821D02*
X2478Y4821D01*
X2495Y4821D02*
X2518Y4821D01*
X4352Y4821D02*
X4356Y4821D01*
X4387Y4821D02*
X4392Y4821D01*
X4411Y4821D02*
X4417Y4821D01*
X2457Y4820D02*
X2478Y4820D01*
X2495Y4820D02*
X2517Y4820D01*
X4352Y4820D02*
X4356Y4820D01*
X4386Y4820D02*
X4391Y4820D01*
X4410Y4820D02*
X4416Y4820D01*
X4432Y4820D02*
X4433Y4820D01*
X2458Y4819D02*
X2466Y4819D01*
X2469Y4819D02*
X2477Y4819D01*
X2497Y4819D02*
X2515Y4819D01*
X4352Y4819D02*
X4356Y4819D01*
X4386Y4819D02*
X4391Y4819D01*
X4409Y4819D02*
X4415Y4819D01*
X4431Y4819D02*
X4434Y4819D01*
X4352Y4818D02*
X4356Y4818D01*
X4385Y4818D02*
X4390Y4818D01*
X4409Y4818D02*
X4415Y4818D01*
X4430Y4818D02*
X4435Y4818D01*
X4352Y4817D02*
X4356Y4817D01*
X4385Y4817D02*
X4390Y4817D01*
X4409Y4817D02*
X4414Y4817D01*
X4430Y4817D02*
X4435Y4817D01*
X4352Y4816D02*
X4356Y4816D01*
X4384Y4816D02*
X4389Y4816D01*
X4409Y4816D02*
X4413Y4816D01*
X4430Y4816D02*
X4435Y4816D01*
X4331Y4815D02*
X4356Y4815D01*
X4371Y4815D02*
X4389Y4815D01*
X4409Y4815D02*
X4434Y4815D01*
X4331Y4814D02*
X4356Y4814D01*
X4370Y4814D02*
X4388Y4814D01*
X4409Y4814D02*
X4434Y4814D01*
X4330Y4813D02*
X4356Y4813D01*
X4370Y4813D02*
X4388Y4813D01*
X4410Y4813D02*
X4433Y4813D01*
X4330Y4812D02*
X4356Y4812D01*
X4370Y4812D02*
X4387Y4812D01*
X4411Y4812D02*
X4432Y4812D01*
X4331Y4811D02*
X4356Y4811D01*
X4370Y4811D02*
X4385Y4811D01*
X4412Y4811D02*
X4431Y4811D01*
X2504Y4747D02*
X2507Y4747D01*
X2503Y4746D02*
X2508Y4746D01*
X2502Y4745D02*
X2508Y4745D01*
X2502Y4744D02*
X2508Y4744D01*
X2502Y4743D02*
X2508Y4743D01*
X2502Y4742D02*
X2508Y4742D01*
X2502Y4741D02*
X2508Y4741D01*
X2502Y4740D02*
X2508Y4740D01*
X2502Y4739D02*
X2508Y4739D01*
X2502Y4738D02*
X2508Y4738D01*
X2502Y4737D02*
X2508Y4737D01*
X2502Y4736D02*
X2508Y4736D01*
X2502Y4735D02*
X2508Y4735D01*
X2502Y4734D02*
X2508Y4734D01*
X2490Y4733D02*
X2520Y4733D01*
X2489Y4732D02*
X2522Y4732D01*
X2488Y4731D02*
X2522Y4731D01*
X2488Y4730D02*
X2522Y4730D01*
X2488Y4729D02*
X2522Y4729D01*
X2489Y4728D02*
X2522Y4728D01*
X2490Y4727D02*
X2521Y4727D01*
X2502Y4726D02*
X2508Y4726D01*
X2502Y4725D02*
X2508Y4725D01*
X2502Y4724D02*
X2508Y4724D01*
X2502Y4723D02*
X2508Y4723D01*
X2502Y4722D02*
X2508Y4722D01*
X2502Y4721D02*
X2508Y4721D01*
X2502Y4720D02*
X2508Y4720D01*
X2502Y4719D02*
X2508Y4719D01*
X2502Y4718D02*
X2508Y4718D01*
X2502Y4717D02*
X2508Y4717D01*
X2502Y4716D02*
X2508Y4716D01*
X2502Y4715D02*
X2508Y4715D01*
X2503Y4714D02*
X2508Y4714D01*
X2504Y4713D02*
X2507Y4713D01*
X4397Y4699D02*
X4400Y4699D01*
X4419Y4699D02*
X4421Y4699D01*
X4396Y4698D02*
X4400Y4698D01*
X4418Y4698D02*
X4422Y4698D01*
X4396Y4697D02*
X4401Y4697D01*
X4418Y4697D02*
X4422Y4697D01*
X4396Y4696D02*
X4401Y4696D01*
X4418Y4696D02*
X4422Y4696D01*
X4396Y4695D02*
X4401Y4695D01*
X4418Y4695D02*
X4422Y4695D01*
X4396Y4694D02*
X4401Y4694D01*
X4418Y4694D02*
X4422Y4694D01*
X4396Y4693D02*
X4401Y4693D01*
X4418Y4693D02*
X4422Y4693D01*
X4396Y4692D02*
X4401Y4692D01*
X4418Y4692D02*
X4422Y4692D01*
X4396Y4691D02*
X4401Y4691D01*
X4418Y4691D02*
X4422Y4691D01*
X4396Y4690D02*
X4401Y4690D01*
X4418Y4690D02*
X4422Y4690D01*
X4396Y4689D02*
X4401Y4689D01*
X4418Y4689D02*
X4422Y4689D01*
X4320Y4688D02*
X4333Y4688D01*
X4359Y4688D02*
X4372Y4688D01*
X4396Y4688D02*
X4401Y4688D01*
X4418Y4688D02*
X4422Y4688D01*
X4318Y4687D02*
X4335Y4687D01*
X4358Y4687D02*
X4374Y4687D01*
X4396Y4687D02*
X4401Y4687D01*
X4417Y4687D02*
X4422Y4687D01*
X4318Y4686D02*
X4337Y4686D01*
X4357Y4686D02*
X4376Y4686D01*
X4397Y4686D02*
X4402Y4686D01*
X4417Y4686D02*
X4422Y4686D01*
X4318Y4685D02*
X4338Y4685D01*
X4357Y4685D02*
X4377Y4685D01*
X4397Y4685D02*
X4402Y4685D01*
X4417Y4685D02*
X4422Y4685D01*
X4318Y4684D02*
X4339Y4684D01*
X4357Y4684D02*
X4378Y4684D01*
X4397Y4684D02*
X4402Y4684D01*
X4416Y4684D02*
X4421Y4684D01*
X4319Y4683D02*
X4340Y4683D01*
X4359Y4683D02*
X4379Y4683D01*
X4398Y4683D02*
X4403Y4683D01*
X4416Y4683D02*
X4421Y4683D01*
X4334Y4682D02*
X4341Y4682D01*
X4373Y4682D02*
X4380Y4682D01*
X4398Y4682D02*
X4403Y4682D01*
X4415Y4682D02*
X4420Y4682D01*
X4335Y4681D02*
X4342Y4681D01*
X4374Y4681D02*
X4381Y4681D01*
X4399Y4681D02*
X4404Y4681D01*
X4415Y4681D02*
X4420Y4681D01*
X4336Y4680D02*
X4343Y4680D01*
X4375Y4680D02*
X4382Y4680D01*
X4399Y4680D02*
X4404Y4680D01*
X4415Y4680D02*
X4420Y4680D01*
X4337Y4679D02*
X4343Y4679D01*
X4377Y4679D02*
X4383Y4679D01*
X4399Y4679D02*
X4404Y4679D01*
X4414Y4679D02*
X4419Y4679D01*
X4338Y4678D02*
X4344Y4678D01*
X4378Y4678D02*
X4383Y4678D01*
X4400Y4678D02*
X4405Y4678D01*
X4414Y4678D02*
X4419Y4678D01*
X4339Y4677D02*
X4344Y4677D01*
X4378Y4677D02*
X4383Y4677D01*
X4400Y4677D02*
X4405Y4677D01*
X4413Y4677D02*
X4418Y4677D01*
X4339Y4676D02*
X4344Y4676D01*
X4379Y4676D02*
X4383Y4676D01*
X4401Y4676D02*
X4406Y4676D01*
X4413Y4676D02*
X4418Y4676D01*
X4339Y4675D02*
X4344Y4675D01*
X4379Y4675D02*
X4383Y4675D01*
X4401Y4675D02*
X4406Y4675D01*
X4413Y4675D02*
X4418Y4675D01*
X4339Y4674D02*
X4344Y4674D01*
X4379Y4674D02*
X4383Y4674D01*
X4401Y4674D02*
X4406Y4674D01*
X4412Y4674D02*
X4417Y4674D01*
X4339Y4673D02*
X4344Y4673D01*
X4379Y4673D02*
X4383Y4673D01*
X4402Y4673D02*
X4407Y4673D01*
X4412Y4673D02*
X4417Y4673D01*
X4339Y4672D02*
X4344Y4672D01*
X4379Y4672D02*
X4383Y4672D01*
X4402Y4672D02*
X4407Y4672D01*
X4411Y4672D02*
X4416Y4672D01*
X4339Y4671D02*
X4344Y4671D01*
X4379Y4671D02*
X4383Y4671D01*
X4403Y4671D02*
X4407Y4671D01*
X4411Y4671D02*
X4416Y4671D01*
X4339Y4670D02*
X4344Y4670D01*
X4379Y4670D02*
X4383Y4670D01*
X4403Y4670D02*
X4408Y4670D01*
X4411Y4670D02*
X4416Y4670D01*
X4339Y4669D02*
X4344Y4669D01*
X4379Y4669D02*
X4383Y4669D01*
X4403Y4669D02*
X4408Y4669D01*
X4410Y4669D02*
X4415Y4669D01*
X4339Y4668D02*
X4344Y4668D01*
X4378Y4668D02*
X4383Y4668D01*
X4404Y4668D02*
X4415Y4668D01*
X4338Y4667D02*
X4343Y4667D01*
X4377Y4667D02*
X4383Y4667D01*
X4404Y4667D02*
X4415Y4667D01*
X4337Y4666D02*
X4343Y4666D01*
X4376Y4666D02*
X4382Y4666D01*
X4404Y4666D02*
X4414Y4666D01*
X4336Y4665D02*
X4343Y4665D01*
X4375Y4665D02*
X4382Y4665D01*
X4405Y4665D02*
X4414Y4665D01*
X4334Y4664D02*
X4342Y4664D01*
X4374Y4664D02*
X4381Y4664D01*
X4405Y4664D02*
X4413Y4664D01*
X4333Y4663D02*
X4341Y4663D01*
X4372Y4663D02*
X4380Y4663D01*
X4406Y4663D02*
X4413Y4663D01*
X4319Y4662D02*
X4340Y4662D01*
X4358Y4662D02*
X4379Y4662D01*
X4406Y4662D02*
X4413Y4662D01*
X4318Y4661D02*
X4338Y4661D01*
X4357Y4661D02*
X4378Y4661D01*
X4406Y4661D02*
X4412Y4661D01*
X2431Y4660D02*
X2442Y4660D01*
X2459Y4660D02*
X2460Y4660D01*
X2477Y4660D02*
X2483Y4660D01*
X2498Y4660D02*
X2508Y4660D01*
X4318Y4660D02*
X4337Y4660D01*
X4357Y4660D02*
X4377Y4660D01*
X4407Y4660D02*
X4412Y4660D01*
X2428Y4659D02*
X2444Y4659D01*
X2458Y4659D02*
X2461Y4659D01*
X2477Y4659D02*
X2483Y4659D01*
X2497Y4659D02*
X2511Y4659D01*
X4318Y4659D02*
X4336Y4659D01*
X4357Y4659D02*
X4375Y4659D01*
X4407Y4659D02*
X4411Y4659D01*
X2427Y4658D02*
X2444Y4658D01*
X2457Y4658D02*
X2462Y4658D01*
X2476Y4658D02*
X2483Y4658D01*
X2497Y4658D02*
X2512Y4658D01*
X4319Y4658D02*
X4334Y4658D01*
X4358Y4658D02*
X4374Y4658D01*
X4408Y4658D02*
X4411Y4658D01*
X2426Y4657D02*
X2444Y4657D01*
X2457Y4657D02*
X2462Y4657D01*
X2476Y4657D02*
X2483Y4657D01*
X2497Y4657D02*
X2513Y4657D01*
X2425Y4656D02*
X2444Y4656D01*
X2457Y4656D02*
X2462Y4656D01*
X2475Y4656D02*
X2483Y4656D01*
X2497Y4656D02*
X2514Y4656D01*
X2425Y4655D02*
X2443Y4655D01*
X2457Y4655D02*
X2462Y4655D01*
X2475Y4655D02*
X2483Y4655D01*
X2498Y4655D02*
X2514Y4655D01*
X2424Y4654D02*
X2430Y4654D01*
X2434Y4654D02*
X2439Y4654D01*
X2457Y4654D02*
X2462Y4654D01*
X2474Y4654D02*
X2483Y4654D01*
X2509Y4654D02*
X2515Y4654D01*
X2424Y4653D02*
X2429Y4653D01*
X2434Y4653D02*
X2439Y4653D01*
X2457Y4653D02*
X2462Y4653D01*
X2474Y4653D02*
X2483Y4653D01*
X2510Y4653D02*
X2516Y4653D01*
X2423Y4652D02*
X2428Y4652D01*
X2434Y4652D02*
X2439Y4652D01*
X2457Y4652D02*
X2462Y4652D01*
X2473Y4652D02*
X2483Y4652D01*
X2511Y4652D02*
X2517Y4652D01*
X2423Y4651D02*
X2428Y4651D01*
X2434Y4651D02*
X2439Y4651D01*
X2457Y4651D02*
X2462Y4651D01*
X2473Y4651D02*
X2483Y4651D01*
X2512Y4651D02*
X2518Y4651D01*
X2422Y4650D02*
X2427Y4650D01*
X2434Y4650D02*
X2439Y4650D01*
X2457Y4650D02*
X2462Y4650D01*
X2473Y4650D02*
X2483Y4650D01*
X2512Y4650D02*
X2518Y4650D01*
X2422Y4649D02*
X2427Y4649D01*
X2434Y4649D02*
X2439Y4649D01*
X2457Y4649D02*
X2462Y4649D01*
X2472Y4649D02*
X2477Y4649D01*
X2479Y4649D02*
X2483Y4649D01*
X2513Y4649D02*
X2519Y4649D01*
X2421Y4648D02*
X2426Y4648D01*
X2434Y4648D02*
X2439Y4648D01*
X2457Y4648D02*
X2462Y4648D01*
X2472Y4648D02*
X2477Y4648D01*
X2479Y4648D02*
X2483Y4648D01*
X2514Y4648D02*
X2520Y4648D01*
X2421Y4647D02*
X2426Y4647D01*
X2434Y4647D02*
X2439Y4647D01*
X2457Y4647D02*
X2462Y4647D01*
X2471Y4647D02*
X2476Y4647D01*
X2479Y4647D02*
X2483Y4647D01*
X2515Y4647D02*
X2521Y4647D01*
X2420Y4646D02*
X2425Y4646D01*
X2434Y4646D02*
X2439Y4646D01*
X2457Y4646D02*
X2462Y4646D01*
X2471Y4646D02*
X2476Y4646D01*
X2479Y4646D02*
X2483Y4646D01*
X2515Y4646D02*
X2521Y4646D01*
X2420Y4645D02*
X2425Y4645D01*
X2434Y4645D02*
X2439Y4645D01*
X2457Y4645D02*
X2462Y4645D01*
X2470Y4645D02*
X2475Y4645D01*
X2479Y4645D02*
X2483Y4645D01*
X2516Y4645D02*
X2522Y4645D01*
X2419Y4644D02*
X2424Y4644D01*
X2434Y4644D02*
X2439Y4644D01*
X2457Y4644D02*
X2462Y4644D01*
X2470Y4644D02*
X2475Y4644D01*
X2479Y4644D02*
X2483Y4644D01*
X2517Y4644D02*
X2522Y4644D01*
X2419Y4643D02*
X2424Y4643D01*
X2434Y4643D02*
X2439Y4643D01*
X2457Y4643D02*
X2462Y4643D01*
X2470Y4643D02*
X2475Y4643D01*
X2479Y4643D02*
X2483Y4643D01*
X2517Y4643D02*
X2522Y4643D01*
X2418Y4642D02*
X2423Y4642D01*
X2434Y4642D02*
X2439Y4642D01*
X2457Y4642D02*
X2462Y4642D01*
X2469Y4642D02*
X2474Y4642D01*
X2479Y4642D02*
X2483Y4642D01*
X2518Y4642D02*
X2522Y4642D01*
X2418Y4641D02*
X2423Y4641D01*
X2434Y4641D02*
X2439Y4641D01*
X2457Y4641D02*
X2462Y4641D01*
X2469Y4641D02*
X2474Y4641D01*
X2479Y4641D02*
X2483Y4641D01*
X2518Y4641D02*
X2523Y4641D01*
X2418Y4640D02*
X2423Y4640D01*
X2434Y4640D02*
X2439Y4640D01*
X2457Y4640D02*
X2462Y4640D01*
X2468Y4640D02*
X2473Y4640D01*
X2479Y4640D02*
X2483Y4640D01*
X2518Y4640D02*
X2523Y4640D01*
X2418Y4639D02*
X2422Y4639D01*
X2434Y4639D02*
X2439Y4639D01*
X2457Y4639D02*
X2462Y4639D01*
X2468Y4639D02*
X2473Y4639D01*
X2479Y4639D02*
X2483Y4639D01*
X2518Y4639D02*
X2523Y4639D01*
X2418Y4638D02*
X2423Y4638D01*
X2434Y4638D02*
X2439Y4638D01*
X2457Y4638D02*
X2462Y4638D01*
X2467Y4638D02*
X2472Y4638D01*
X2479Y4638D02*
X2483Y4638D01*
X2518Y4638D02*
X2523Y4638D01*
X2418Y4637D02*
X2423Y4637D01*
X2434Y4637D02*
X2439Y4637D01*
X2457Y4637D02*
X2462Y4637D01*
X2467Y4637D02*
X2472Y4637D01*
X2479Y4637D02*
X2483Y4637D01*
X2497Y4637D02*
X2507Y4637D01*
X2518Y4637D02*
X2523Y4637D01*
X2418Y4636D02*
X2423Y4636D01*
X2434Y4636D02*
X2439Y4636D01*
X2457Y4636D02*
X2462Y4636D01*
X2466Y4636D02*
X2472Y4636D01*
X2479Y4636D02*
X2483Y4636D01*
X2496Y4636D02*
X2508Y4636D01*
X2518Y4636D02*
X2523Y4636D01*
X2419Y4635D02*
X2424Y4635D01*
X2434Y4635D02*
X2439Y4635D01*
X2457Y4635D02*
X2462Y4635D01*
X2466Y4635D02*
X2471Y4635D01*
X2479Y4635D02*
X2483Y4635D01*
X2496Y4635D02*
X2509Y4635D01*
X2518Y4635D02*
X2523Y4635D01*
X2419Y4634D02*
X2424Y4634D01*
X2434Y4634D02*
X2439Y4634D01*
X2457Y4634D02*
X2462Y4634D01*
X2466Y4634D02*
X2471Y4634D01*
X2479Y4634D02*
X2483Y4634D01*
X2496Y4634D02*
X2509Y4634D01*
X2518Y4634D02*
X2523Y4634D01*
X2419Y4633D02*
X2425Y4633D01*
X2434Y4633D02*
X2439Y4633D01*
X2457Y4633D02*
X2462Y4633D01*
X2465Y4633D02*
X2470Y4633D01*
X2479Y4633D02*
X2483Y4633D01*
X2496Y4633D02*
X2509Y4633D01*
X2518Y4633D02*
X2523Y4633D01*
X2420Y4632D02*
X2425Y4632D01*
X2434Y4632D02*
X2439Y4632D01*
X2457Y4632D02*
X2462Y4632D01*
X2465Y4632D02*
X2470Y4632D01*
X2479Y4632D02*
X2483Y4632D01*
X2496Y4632D02*
X2508Y4632D01*
X2518Y4632D02*
X2523Y4632D01*
X2420Y4631D02*
X2426Y4631D01*
X2434Y4631D02*
X2439Y4631D01*
X2457Y4631D02*
X2462Y4631D01*
X2464Y4631D02*
X2469Y4631D01*
X2479Y4631D02*
X2483Y4631D01*
X2496Y4631D02*
X2501Y4631D01*
X2518Y4631D02*
X2523Y4631D01*
X2421Y4630D02*
X2426Y4630D01*
X2434Y4630D02*
X2439Y4630D01*
X2457Y4630D02*
X2462Y4630D01*
X2464Y4630D02*
X2469Y4630D01*
X2479Y4630D02*
X2483Y4630D01*
X2496Y4630D02*
X2501Y4630D01*
X2518Y4630D02*
X2523Y4630D01*
X2421Y4629D02*
X2427Y4629D01*
X2434Y4629D02*
X2439Y4629D01*
X2457Y4629D02*
X2468Y4629D01*
X2479Y4629D02*
X2483Y4629D01*
X2496Y4629D02*
X2501Y4629D01*
X2518Y4629D02*
X2523Y4629D01*
X2422Y4628D02*
X2427Y4628D01*
X2434Y4628D02*
X2439Y4628D01*
X2457Y4628D02*
X2468Y4628D01*
X2479Y4628D02*
X2483Y4628D01*
X2496Y4628D02*
X2501Y4628D01*
X2518Y4628D02*
X2523Y4628D01*
X2422Y4627D02*
X2428Y4627D01*
X2434Y4627D02*
X2439Y4627D01*
X2457Y4627D02*
X2468Y4627D01*
X2479Y4627D02*
X2483Y4627D01*
X2496Y4627D02*
X2501Y4627D01*
X2518Y4627D02*
X2523Y4627D01*
X2423Y4626D02*
X2428Y4626D01*
X2434Y4626D02*
X2439Y4626D01*
X2457Y4626D02*
X2467Y4626D01*
X2479Y4626D02*
X2483Y4626D01*
X2496Y4626D02*
X2501Y4626D01*
X2518Y4626D02*
X2523Y4626D01*
X2423Y4625D02*
X2429Y4625D01*
X2434Y4625D02*
X2439Y4625D01*
X2457Y4625D02*
X2467Y4625D01*
X2479Y4625D02*
X2483Y4625D01*
X2497Y4625D02*
X2501Y4625D01*
X2518Y4625D02*
X2522Y4625D01*
X2424Y4624D02*
X2429Y4624D01*
X2434Y4624D02*
X2439Y4624D01*
X2457Y4624D02*
X2466Y4624D01*
X2479Y4624D02*
X2483Y4624D01*
X2497Y4624D02*
X2502Y4624D01*
X2517Y4624D02*
X2522Y4624D01*
X2424Y4623D02*
X2442Y4623D01*
X2457Y4623D02*
X2466Y4623D01*
X2479Y4623D02*
X2483Y4623D01*
X2497Y4623D02*
X2522Y4623D01*
X2425Y4622D02*
X2443Y4622D01*
X2457Y4622D02*
X2465Y4622D01*
X2479Y4622D02*
X2483Y4622D01*
X2497Y4622D02*
X2522Y4622D01*
X2426Y4621D02*
X2444Y4621D01*
X2457Y4621D02*
X2465Y4621D01*
X2479Y4621D02*
X2483Y4621D01*
X2498Y4621D02*
X2521Y4621D01*
X2426Y4620D02*
X2444Y4620D01*
X2457Y4620D02*
X2465Y4620D01*
X2479Y4620D02*
X2483Y4620D01*
X2499Y4620D02*
X2520Y4620D01*
X2428Y4619D02*
X2444Y4619D01*
X2457Y4619D02*
X2464Y4619D01*
X2479Y4619D02*
X2483Y4619D01*
X2500Y4619D02*
X2519Y4619D01*
X2430Y4618D02*
X2443Y4618D01*
X2457Y4618D02*
X2464Y4618D01*
X2480Y4618D02*
X2482Y4618D01*
X2502Y4618D02*
X2517Y4618D01*
X1180Y4593D02*
X1188Y4593D01*
X1862Y4593D02*
X1870Y4593D01*
X1179Y4592D02*
X1188Y4592D01*
X1860Y4592D02*
X1872Y4592D01*
X2190Y4592D02*
X2198Y4592D01*
X1179Y4591D02*
X1188Y4591D01*
X1249Y4591D02*
X1250Y4591D01*
X1286Y4591D02*
X1287Y4591D01*
X1858Y4591D02*
X1874Y4591D01*
X2189Y4591D02*
X2198Y4591D01*
X2260Y4591D02*
X2260Y4591D01*
X2297Y4591D02*
X2297Y4591D01*
X868Y4590D02*
X873Y4590D01*
X1179Y4590D02*
X1188Y4590D01*
X1248Y4590D02*
X1251Y4590D01*
X1284Y4590D02*
X1288Y4590D01*
X1856Y4590D02*
X1876Y4590D01*
X2189Y4590D02*
X2198Y4590D01*
X2258Y4590D02*
X2262Y4590D01*
X2295Y4590D02*
X2299Y4590D01*
X865Y4589D02*
X876Y4589D01*
X1180Y4589D02*
X1188Y4589D01*
X1247Y4589D02*
X1252Y4589D01*
X1284Y4589D02*
X1289Y4589D01*
X1854Y4589D02*
X1878Y4589D01*
X2053Y4589D02*
X2089Y4589D01*
X2189Y4589D02*
X2198Y4589D01*
X2258Y4589D02*
X2263Y4589D01*
X2294Y4589D02*
X2299Y4589D01*
X863Y4588D02*
X878Y4588D01*
X1183Y4588D02*
X1188Y4588D01*
X1247Y4588D02*
X1253Y4588D01*
X1283Y4588D02*
X1289Y4588D01*
X1852Y4588D02*
X1863Y4588D01*
X1869Y4588D02*
X1880Y4588D01*
X2051Y4588D02*
X2089Y4588D01*
X2189Y4588D02*
X2198Y4588D01*
X2258Y4588D02*
X2264Y4588D01*
X2294Y4588D02*
X2299Y4588D01*
X861Y4587D02*
X880Y4587D01*
X1184Y4587D02*
X1188Y4587D01*
X1248Y4587D02*
X1254Y4587D01*
X1282Y4587D02*
X1288Y4587D01*
X1850Y4587D02*
X1861Y4587D01*
X1871Y4587D02*
X1882Y4587D01*
X1965Y4587D02*
X1969Y4587D01*
X2050Y4587D02*
X2089Y4587D01*
X2191Y4587D02*
X2198Y4587D01*
X2258Y4587D02*
X2264Y4587D01*
X2293Y4587D02*
X2299Y4587D01*
X859Y4586D02*
X882Y4586D01*
X966Y4586D02*
X968Y4586D01*
X1184Y4586D02*
X1188Y4586D01*
X1248Y4586D02*
X1255Y4586D01*
X1281Y4586D02*
X1287Y4586D01*
X1848Y4586D02*
X1859Y4586D01*
X1873Y4586D02*
X1884Y4586D01*
X1964Y4586D02*
X1970Y4586D01*
X2048Y4586D02*
X2089Y4586D01*
X2193Y4586D02*
X2198Y4586D01*
X2259Y4586D02*
X2265Y4586D01*
X2292Y4586D02*
X2298Y4586D01*
X857Y4585D02*
X884Y4585D01*
X964Y4585D02*
X970Y4585D01*
X1184Y4585D02*
X1188Y4585D01*
X1249Y4585D02*
X1256Y4585D01*
X1280Y4585D02*
X1286Y4585D01*
X1847Y4585D02*
X1857Y4585D01*
X1875Y4585D02*
X1885Y4585D01*
X1964Y4585D02*
X1971Y4585D01*
X2048Y4585D02*
X2088Y4585D01*
X2193Y4585D02*
X2198Y4585D01*
X2260Y4585D02*
X2266Y4585D01*
X2291Y4585D02*
X2297Y4585D01*
X855Y4584D02*
X866Y4584D01*
X874Y4584D02*
X886Y4584D01*
X964Y4584D02*
X970Y4584D01*
X1054Y4584D02*
X1088Y4584D01*
X1184Y4584D02*
X1188Y4584D01*
X1250Y4584D02*
X1256Y4584D01*
X1279Y4584D02*
X1286Y4584D01*
X1847Y4584D02*
X1855Y4584D01*
X1877Y4584D02*
X1886Y4584D01*
X1963Y4584D02*
X1971Y4584D01*
X2048Y4584D02*
X2054Y4584D01*
X2193Y4584D02*
X2198Y4584D01*
X2261Y4584D02*
X2267Y4584D01*
X2290Y4584D02*
X2296Y4584D01*
X853Y4583D02*
X864Y4583D01*
X876Y4583D02*
X887Y4583D01*
X963Y4583D02*
X971Y4583D01*
X1052Y4583D02*
X1089Y4583D01*
X1183Y4583D02*
X1188Y4583D01*
X1251Y4583D02*
X1257Y4583D01*
X1278Y4583D02*
X1285Y4583D01*
X1846Y4583D02*
X1853Y4583D01*
X1879Y4583D02*
X1886Y4583D01*
X1963Y4583D02*
X1971Y4583D01*
X2048Y4583D02*
X2053Y4583D01*
X2193Y4583D02*
X2198Y4583D01*
X2262Y4583D02*
X2268Y4583D01*
X2289Y4583D02*
X2296Y4583D01*
X852Y4582D02*
X862Y4582D01*
X878Y4582D02*
X889Y4582D01*
X963Y4582D02*
X971Y4582D01*
X1050Y4582D02*
X1089Y4582D01*
X1147Y4582D02*
X1188Y4582D01*
X1252Y4582D02*
X1258Y4582D01*
X1278Y4582D02*
X1284Y4582D01*
X1846Y4582D02*
X1851Y4582D01*
X1881Y4582D02*
X1886Y4582D01*
X1963Y4582D02*
X1971Y4582D01*
X2048Y4582D02*
X2052Y4582D01*
X2193Y4582D02*
X2198Y4582D01*
X2262Y4582D02*
X2269Y4582D01*
X2288Y4582D02*
X2295Y4582D01*
X851Y4581D02*
X860Y4581D01*
X880Y4581D02*
X889Y4581D01*
X963Y4581D02*
X971Y4581D01*
X1049Y4581D02*
X1089Y4581D01*
X1147Y4581D02*
X1188Y4581D01*
X1253Y4581D02*
X1259Y4581D01*
X1277Y4581D02*
X1283Y4581D01*
X1846Y4581D02*
X1850Y4581D01*
X1882Y4581D02*
X1887Y4581D01*
X1963Y4581D02*
X1971Y4581D01*
X2048Y4581D02*
X2052Y4581D01*
X2158Y4581D02*
X2198Y4581D01*
X2263Y4581D02*
X2270Y4581D01*
X2288Y4581D02*
X2294Y4581D01*
X851Y4580D02*
X859Y4580D01*
X882Y4580D02*
X890Y4580D01*
X963Y4580D02*
X971Y4580D01*
X1048Y4580D02*
X1089Y4580D01*
X1147Y4580D02*
X1188Y4580D01*
X1254Y4580D02*
X1260Y4580D01*
X1276Y4580D02*
X1282Y4580D01*
X1845Y4580D02*
X1850Y4580D01*
X1882Y4580D02*
X1887Y4580D01*
X1963Y4580D02*
X1971Y4580D01*
X2048Y4580D02*
X2053Y4580D01*
X2157Y4580D02*
X2198Y4580D01*
X2264Y4580D02*
X2270Y4580D01*
X2287Y4580D02*
X2293Y4580D01*
X850Y4579D02*
X857Y4579D01*
X884Y4579D02*
X891Y4579D01*
X963Y4579D02*
X971Y4579D01*
X1048Y4579D02*
X1087Y4579D01*
X1147Y4579D02*
X1188Y4579D01*
X1254Y4579D02*
X1261Y4579D01*
X1275Y4579D02*
X1281Y4579D01*
X1845Y4579D02*
X1850Y4579D01*
X1882Y4579D02*
X1887Y4579D01*
X1963Y4579D02*
X1971Y4579D01*
X2048Y4579D02*
X2073Y4579D01*
X2156Y4579D02*
X2198Y4579D01*
X2265Y4579D02*
X2271Y4579D01*
X2286Y4579D02*
X2292Y4579D01*
X850Y4578D02*
X855Y4578D01*
X886Y4578D02*
X891Y4578D01*
X963Y4578D02*
X971Y4578D01*
X1048Y4578D02*
X1053Y4578D01*
X1148Y4578D02*
X1188Y4578D01*
X1255Y4578D02*
X1262Y4578D01*
X1274Y4578D02*
X1280Y4578D01*
X1845Y4578D02*
X1850Y4578D01*
X1882Y4578D02*
X1887Y4578D01*
X1963Y4578D02*
X1971Y4578D01*
X2048Y4578D02*
X2075Y4578D01*
X2156Y4578D02*
X2198Y4578D01*
X2266Y4578D02*
X2272Y4578D01*
X2285Y4578D02*
X2291Y4578D01*
X850Y4577D02*
X854Y4577D01*
X886Y4577D02*
X891Y4577D01*
X963Y4577D02*
X971Y4577D01*
X1048Y4577D02*
X1052Y4577D01*
X1183Y4577D02*
X1188Y4577D01*
X1256Y4577D02*
X1262Y4577D01*
X1273Y4577D02*
X1280Y4577D01*
X1845Y4577D02*
X1887Y4577D01*
X1963Y4577D02*
X1971Y4577D01*
X2049Y4577D02*
X2075Y4577D01*
X2157Y4577D02*
X2198Y4577D01*
X2267Y4577D02*
X2273Y4577D01*
X2284Y4577D02*
X2290Y4577D01*
X850Y4576D02*
X854Y4576D01*
X887Y4576D02*
X891Y4576D01*
X963Y4576D02*
X971Y4576D01*
X1048Y4576D02*
X1052Y4576D01*
X1184Y4576D02*
X1188Y4576D01*
X1257Y4576D02*
X1263Y4576D01*
X1272Y4576D02*
X1279Y4576D01*
X1845Y4576D02*
X1887Y4576D01*
X1963Y4576D02*
X1971Y4576D01*
X2049Y4576D02*
X2075Y4576D01*
X2193Y4576D02*
X2198Y4576D01*
X2268Y4576D02*
X2274Y4576D01*
X2283Y4576D02*
X2290Y4576D01*
X850Y4575D02*
X854Y4575D01*
X887Y4575D02*
X891Y4575D01*
X963Y4575D02*
X971Y4575D01*
X1048Y4575D02*
X1052Y4575D01*
X1184Y4575D02*
X1188Y4575D01*
X1258Y4575D02*
X1264Y4575D01*
X1272Y4575D02*
X1278Y4575D01*
X1845Y4575D02*
X1887Y4575D01*
X1963Y4575D02*
X1971Y4575D01*
X2048Y4575D02*
X2075Y4575D01*
X2193Y4575D02*
X2198Y4575D01*
X2268Y4575D02*
X2275Y4575D01*
X2282Y4575D02*
X2289Y4575D01*
X850Y4574D02*
X891Y4574D01*
X963Y4574D02*
X971Y4574D01*
X1048Y4574D02*
X1054Y4574D01*
X1184Y4574D02*
X1188Y4574D01*
X1259Y4574D02*
X1265Y4574D01*
X1271Y4574D02*
X1277Y4574D01*
X1845Y4574D02*
X1887Y4574D01*
X1963Y4574D02*
X1971Y4574D01*
X2048Y4574D02*
X2074Y4574D01*
X2193Y4574D02*
X2198Y4574D01*
X2269Y4574D02*
X2276Y4574D01*
X2282Y4574D02*
X2288Y4574D01*
X850Y4573D02*
X891Y4573D01*
X963Y4573D02*
X971Y4573D01*
X1048Y4573D02*
X1074Y4573D01*
X1184Y4573D02*
X1188Y4573D01*
X1260Y4573D02*
X1266Y4573D01*
X1270Y4573D02*
X1276Y4573D01*
X1845Y4573D02*
X1887Y4573D01*
X1963Y4573D02*
X1971Y4573D01*
X2048Y4573D02*
X2054Y4573D01*
X2193Y4573D02*
X2198Y4573D01*
X2270Y4573D02*
X2276Y4573D01*
X2281Y4573D02*
X2287Y4573D01*
X850Y4572D02*
X891Y4572D01*
X963Y4572D02*
X971Y4572D01*
X1048Y4572D02*
X1075Y4572D01*
X1181Y4572D02*
X1188Y4572D01*
X1260Y4572D02*
X1267Y4572D01*
X1269Y4572D02*
X1275Y4572D01*
X1845Y4572D02*
X1850Y4572D01*
X1882Y4572D02*
X1887Y4572D01*
X1963Y4572D02*
X1971Y4572D01*
X2048Y4572D02*
X2053Y4572D01*
X2193Y4572D02*
X2198Y4572D01*
X2271Y4572D02*
X2277Y4572D01*
X2280Y4572D02*
X2286Y4572D01*
X850Y4571D02*
X891Y4571D01*
X963Y4571D02*
X971Y4571D01*
X1049Y4571D02*
X1075Y4571D01*
X1180Y4571D02*
X1188Y4571D01*
X1261Y4571D02*
X1274Y4571D01*
X1845Y4571D02*
X1850Y4571D01*
X1882Y4571D02*
X1887Y4571D01*
X1963Y4571D02*
X1971Y4571D01*
X2048Y4571D02*
X2052Y4571D01*
X2193Y4571D02*
X2198Y4571D01*
X2272Y4571D02*
X2285Y4571D01*
X850Y4570D02*
X891Y4570D01*
X963Y4570D02*
X971Y4570D01*
X1049Y4570D02*
X1075Y4570D01*
X1179Y4570D02*
X1188Y4570D01*
X1262Y4570D02*
X1274Y4570D01*
X1845Y4570D02*
X1850Y4570D01*
X1882Y4570D02*
X1887Y4570D01*
X1950Y4570D02*
X1985Y4570D01*
X2048Y4570D02*
X2052Y4570D01*
X2190Y4570D02*
X2198Y4570D01*
X2273Y4570D02*
X2285Y4570D01*
X850Y4569D02*
X891Y4569D01*
X963Y4569D02*
X971Y4569D01*
X1048Y4569D02*
X1075Y4569D01*
X1179Y4569D02*
X1188Y4569D01*
X1248Y4569D02*
X1288Y4569D01*
X1845Y4569D02*
X1850Y4569D01*
X1882Y4569D02*
X1887Y4569D01*
X1947Y4569D02*
X1987Y4569D01*
X2048Y4569D02*
X2054Y4569D01*
X2189Y4569D02*
X2198Y4569D01*
X2259Y4569D02*
X2298Y4569D01*
X850Y4568D02*
X854Y4568D01*
X887Y4568D02*
X891Y4568D01*
X948Y4568D02*
X986Y4568D01*
X1048Y4568D02*
X1072Y4568D01*
X1179Y4568D02*
X1188Y4568D01*
X1247Y4568D02*
X1288Y4568D01*
X1846Y4568D02*
X1849Y4568D01*
X1883Y4568D02*
X1886Y4568D01*
X1946Y4568D02*
X1988Y4568D01*
X2048Y4568D02*
X2088Y4568D01*
X2189Y4568D02*
X2198Y4568D01*
X2258Y4568D02*
X2299Y4568D01*
X850Y4567D02*
X854Y4567D01*
X887Y4567D02*
X891Y4567D01*
X946Y4567D02*
X988Y4567D01*
X1048Y4567D02*
X1053Y4567D01*
X1180Y4567D02*
X1188Y4567D01*
X1247Y4567D02*
X1289Y4567D01*
X1847Y4567D02*
X1848Y4567D01*
X1884Y4567D02*
X1885Y4567D01*
X1946Y4567D02*
X1989Y4567D01*
X2048Y4567D02*
X2089Y4567D01*
X2189Y4567D02*
X2198Y4567D01*
X2258Y4567D02*
X2299Y4567D01*
X850Y4566D02*
X854Y4566D01*
X887Y4566D02*
X891Y4566D01*
X946Y4566D02*
X988Y4566D01*
X1048Y4566D02*
X1052Y4566D01*
X1247Y4566D02*
X1288Y4566D01*
X1946Y4566D02*
X1989Y4566D01*
X2049Y4566D02*
X2089Y4566D01*
X2190Y4566D02*
X2198Y4566D01*
X2258Y4566D02*
X2299Y4566D01*
X850Y4565D02*
X854Y4565D01*
X887Y4565D02*
X891Y4565D01*
X945Y4565D02*
X989Y4565D01*
X1048Y4565D02*
X1052Y4565D01*
X1248Y4565D02*
X1288Y4565D01*
X1946Y4565D02*
X1989Y4565D01*
X2051Y4565D02*
X2089Y4565D01*
X2259Y4565D02*
X2299Y4565D01*
X851Y4564D02*
X853Y4564D01*
X888Y4564D02*
X890Y4564D01*
X945Y4564D02*
X989Y4564D01*
X1048Y4564D02*
X1052Y4564D01*
X1946Y4564D02*
X1989Y4564D01*
X2052Y4564D02*
X2089Y4564D01*
X945Y4563D02*
X989Y4563D01*
X1048Y4563D02*
X1054Y4563D01*
X1946Y4563D02*
X1988Y4563D01*
X2054Y4563D02*
X2088Y4563D01*
X946Y4562D02*
X988Y4562D01*
X1048Y4562D02*
X1088Y4562D01*
X1947Y4562D02*
X1987Y4562D01*
X946Y4561D02*
X988Y4561D01*
X1048Y4561D02*
X1089Y4561D01*
X1950Y4561D02*
X1985Y4561D01*
X948Y4560D02*
X986Y4560D01*
X1049Y4560D02*
X1089Y4560D01*
X1963Y4560D02*
X1971Y4560D01*
X963Y4559D02*
X971Y4559D01*
X1051Y4559D02*
X1089Y4559D01*
X1963Y4559D02*
X1971Y4559D01*
X963Y4558D02*
X971Y4558D01*
X1053Y4558D02*
X1088Y4558D01*
X1963Y4558D02*
X1971Y4558D01*
X963Y4557D02*
X971Y4557D01*
X1963Y4557D02*
X1971Y4557D01*
X963Y4556D02*
X971Y4556D01*
X1963Y4556D02*
X1971Y4556D01*
X963Y4555D02*
X971Y4555D01*
X1963Y4555D02*
X1971Y4555D01*
X963Y4554D02*
X971Y4554D01*
X1165Y4554D02*
X1170Y4554D01*
X1845Y4554D02*
X1886Y4554D01*
X1963Y4554D02*
X1971Y4554D01*
X963Y4553D02*
X971Y4553D01*
X1162Y4553D02*
X1173Y4553D01*
X1845Y4553D02*
X1887Y4553D01*
X1963Y4553D02*
X1971Y4553D01*
X2176Y4553D02*
X2178Y4553D01*
X963Y4552D02*
X971Y4552D01*
X1160Y4552D02*
X1175Y4552D01*
X1249Y4552D02*
X1249Y4552D01*
X1845Y4552D02*
X1887Y4552D01*
X1963Y4552D02*
X1971Y4552D01*
X2173Y4552D02*
X2182Y4552D01*
X850Y4551D02*
X889Y4551D01*
X963Y4551D02*
X971Y4551D01*
X1158Y4551D02*
X1177Y4551D01*
X1248Y4551D02*
X1251Y4551D01*
X1845Y4551D02*
X1887Y4551D01*
X1963Y4551D02*
X1971Y4551D01*
X2170Y4551D02*
X2184Y4551D01*
X2259Y4551D02*
X2262Y4551D01*
X850Y4550D02*
X891Y4550D01*
X963Y4550D02*
X971Y4550D01*
X1156Y4550D02*
X1179Y4550D01*
X1247Y4550D02*
X1251Y4550D01*
X1845Y4550D02*
X1886Y4550D01*
X1963Y4550D02*
X1971Y4550D01*
X2052Y4550D02*
X2056Y4550D01*
X2081Y4550D02*
X2085Y4550D01*
X2168Y4550D02*
X2186Y4550D01*
X2258Y4550D02*
X2262Y4550D01*
X850Y4549D02*
X891Y4549D01*
X963Y4549D02*
X971Y4549D01*
X1154Y4549D02*
X1181Y4549D01*
X1247Y4549D02*
X1252Y4549D01*
X1845Y4549D02*
X1855Y4549D01*
X1963Y4549D02*
X1971Y4549D01*
X2050Y4549D02*
X2057Y4549D01*
X2081Y4549D02*
X2087Y4549D01*
X2166Y4549D02*
X2188Y4549D01*
X2258Y4549D02*
X2262Y4549D01*
X4331Y4549D02*
X4345Y4549D01*
X4360Y4549D02*
X4362Y4549D01*
X4379Y4549D02*
X4385Y4549D01*
X4399Y4549D02*
X4411Y4549D01*
X850Y4548D02*
X891Y4548D01*
X963Y4548D02*
X971Y4548D01*
X1152Y4548D02*
X1163Y4548D01*
X1171Y4548D02*
X1183Y4548D01*
X1247Y4548D02*
X1252Y4548D01*
X1845Y4548D02*
X1857Y4548D01*
X1963Y4548D02*
X1971Y4548D01*
X2049Y4548D02*
X2059Y4548D01*
X2080Y4548D02*
X2088Y4548D01*
X2164Y4548D02*
X2190Y4548D01*
X2258Y4548D02*
X2262Y4548D01*
X4329Y4548D02*
X4346Y4548D01*
X4359Y4548D02*
X4363Y4548D01*
X4378Y4548D02*
X4385Y4548D01*
X4399Y4548D02*
X4413Y4548D01*
X850Y4547D02*
X891Y4547D01*
X963Y4547D02*
X971Y4547D01*
X1150Y4547D02*
X1161Y4547D01*
X1173Y4547D02*
X1184Y4547D01*
X1247Y4547D02*
X1252Y4547D01*
X1846Y4547D02*
X1859Y4547D01*
X1963Y4547D02*
X1971Y4547D01*
X2048Y4547D02*
X2060Y4547D01*
X2080Y4547D02*
X2088Y4547D01*
X2162Y4547D02*
X2174Y4547D01*
X2180Y4547D02*
X2192Y4547D01*
X2258Y4547D02*
X2262Y4547D01*
X4328Y4547D02*
X4346Y4547D01*
X4359Y4547D02*
X4364Y4547D01*
X4378Y4547D02*
X4385Y4547D01*
X4398Y4547D02*
X4414Y4547D01*
X850Y4546D02*
X890Y4546D01*
X963Y4546D02*
X971Y4546D01*
X1149Y4546D02*
X1159Y4546D01*
X1175Y4546D02*
X1186Y4546D01*
X1247Y4546D02*
X1252Y4546D01*
X1849Y4546D02*
X1861Y4546D01*
X1964Y4546D02*
X1971Y4546D01*
X2048Y4546D02*
X2061Y4546D01*
X2081Y4546D02*
X2089Y4546D01*
X2160Y4546D02*
X2172Y4546D01*
X2182Y4546D02*
X2194Y4546D01*
X2258Y4546D02*
X2262Y4546D01*
X4327Y4546D02*
X4346Y4546D01*
X4359Y4546D02*
X4364Y4546D01*
X4377Y4546D02*
X4385Y4546D01*
X4399Y4546D02*
X4415Y4546D01*
X850Y4545D02*
X860Y4545D01*
X963Y4545D02*
X971Y4545D01*
X1053Y4545D02*
X1053Y4545D01*
X1082Y4545D02*
X1083Y4545D01*
X1148Y4545D02*
X1157Y4545D01*
X1177Y4545D02*
X1186Y4545D01*
X1247Y4545D02*
X1252Y4545D01*
X1851Y4545D02*
X1864Y4545D01*
X1964Y4545D02*
X1970Y4545D01*
X2048Y4545D02*
X2062Y4545D01*
X2084Y4545D02*
X2089Y4545D01*
X2159Y4545D02*
X2170Y4545D01*
X2184Y4545D02*
X2195Y4545D01*
X2258Y4545D02*
X2262Y4545D01*
X4327Y4545D02*
X4345Y4545D01*
X4359Y4545D02*
X4364Y4545D01*
X4377Y4545D02*
X4385Y4545D01*
X4399Y4545D02*
X4416Y4545D01*
X850Y4544D02*
X862Y4544D01*
X964Y4544D02*
X971Y4544D01*
X1051Y4544D02*
X1056Y4544D01*
X1081Y4544D02*
X1085Y4544D01*
X1148Y4544D02*
X1155Y4544D01*
X1179Y4544D02*
X1187Y4544D01*
X1247Y4544D02*
X1252Y4544D01*
X1853Y4544D02*
X1866Y4544D01*
X1965Y4544D02*
X1969Y4544D01*
X2048Y4544D02*
X2052Y4544D01*
X2056Y4544D02*
X2064Y4544D01*
X2085Y4544D02*
X2089Y4544D01*
X2158Y4544D02*
X2168Y4544D01*
X2186Y4544D02*
X2196Y4544D01*
X2258Y4544D02*
X2262Y4544D01*
X4326Y4544D02*
X4333Y4544D01*
X4336Y4544D02*
X4341Y4544D01*
X4359Y4544D02*
X4364Y4544D01*
X4376Y4544D02*
X4385Y4544D01*
X4410Y4544D02*
X4417Y4544D01*
X852Y4543D02*
X865Y4543D01*
X964Y4543D02*
X970Y4543D01*
X1049Y4543D02*
X1058Y4543D01*
X1080Y4543D02*
X1087Y4543D01*
X1147Y4543D02*
X1153Y4543D01*
X1181Y4543D02*
X1187Y4543D01*
X1247Y4543D02*
X1252Y4543D01*
X1855Y4543D02*
X1868Y4543D01*
X2048Y4543D02*
X2052Y4543D01*
X2057Y4543D02*
X2065Y4543D01*
X2085Y4543D02*
X2089Y4543D01*
X2157Y4543D02*
X2166Y4543D01*
X2188Y4543D02*
X2197Y4543D01*
X2258Y4543D02*
X2262Y4543D01*
X4326Y4543D02*
X4331Y4543D01*
X4336Y4543D02*
X4341Y4543D01*
X4359Y4543D02*
X4364Y4543D01*
X4376Y4543D02*
X4385Y4543D01*
X4411Y4543D02*
X4417Y4543D01*
X854Y4542D02*
X867Y4542D01*
X966Y4542D02*
X968Y4542D01*
X1049Y4542D02*
X1059Y4542D01*
X1080Y4542D02*
X1088Y4542D01*
X1147Y4542D02*
X1152Y4542D01*
X1183Y4542D02*
X1188Y4542D01*
X1247Y4542D02*
X1252Y4542D01*
X1858Y4542D02*
X1871Y4542D01*
X2048Y4542D02*
X2052Y4542D01*
X2058Y4542D02*
X2066Y4542D01*
X2085Y4542D02*
X2089Y4542D01*
X2157Y4542D02*
X2164Y4542D01*
X2190Y4542D02*
X2197Y4542D01*
X2258Y4542D02*
X2262Y4542D01*
X4325Y4542D02*
X4330Y4542D01*
X4336Y4542D02*
X4341Y4542D01*
X4359Y4542D02*
X4364Y4542D01*
X4376Y4542D02*
X4385Y4542D01*
X4412Y4542D02*
X4418Y4542D01*
X856Y4541D02*
X869Y4541D01*
X1048Y4541D02*
X1060Y4541D01*
X1080Y4541D02*
X1088Y4541D01*
X1147Y4541D02*
X1151Y4541D01*
X1183Y4541D02*
X1188Y4541D01*
X1247Y4541D02*
X1252Y4541D01*
X1860Y4541D02*
X1873Y4541D01*
X2048Y4541D02*
X2052Y4541D01*
X2059Y4541D02*
X2068Y4541D01*
X2085Y4541D02*
X2089Y4541D01*
X2157Y4541D02*
X2162Y4541D01*
X2192Y4541D02*
X2198Y4541D01*
X2258Y4541D02*
X2262Y4541D01*
X4325Y4541D02*
X4330Y4541D01*
X4336Y4541D02*
X4341Y4541D01*
X4359Y4541D02*
X4364Y4541D01*
X4375Y4541D02*
X4385Y4541D01*
X4413Y4541D02*
X4419Y4541D01*
X859Y4540D02*
X871Y4540D01*
X1048Y4540D02*
X1061Y4540D01*
X1081Y4540D02*
X1089Y4540D01*
X1147Y4540D02*
X1151Y4540D01*
X1184Y4540D02*
X1188Y4540D01*
X1247Y4540D02*
X1252Y4540D01*
X1862Y4540D02*
X1875Y4540D01*
X2048Y4540D02*
X2052Y4540D01*
X2061Y4540D02*
X2069Y4540D01*
X2085Y4540D02*
X2089Y4540D01*
X2156Y4540D02*
X2161Y4540D01*
X2193Y4540D02*
X2198Y4540D01*
X2258Y4540D02*
X2262Y4540D01*
X4324Y4540D02*
X4329Y4540D01*
X4336Y4540D02*
X4341Y4540D01*
X4359Y4540D02*
X4364Y4540D01*
X4375Y4540D02*
X4385Y4540D01*
X4414Y4540D02*
X4420Y4540D01*
X861Y4539D02*
X874Y4539D01*
X1048Y4539D02*
X1052Y4539D01*
X1055Y4539D02*
X1063Y4539D01*
X1084Y4539D02*
X1089Y4539D01*
X1147Y4539D02*
X1151Y4539D01*
X1184Y4539D02*
X1188Y4539D01*
X1247Y4539D02*
X1252Y4539D01*
X1865Y4539D02*
X1877Y4539D01*
X2048Y4539D02*
X2052Y4539D01*
X2062Y4539D02*
X2070Y4539D01*
X2085Y4539D02*
X2089Y4539D01*
X2156Y4539D02*
X2161Y4539D01*
X2193Y4539D02*
X2198Y4539D01*
X2258Y4539D02*
X2262Y4539D01*
X4324Y4539D02*
X4329Y4539D01*
X4336Y4539D02*
X4341Y4539D01*
X4359Y4539D02*
X4364Y4539D01*
X4374Y4539D02*
X4385Y4539D01*
X4415Y4539D02*
X4420Y4539D01*
X863Y4538D02*
X876Y4538D01*
X1048Y4538D02*
X1052Y4538D01*
X1056Y4538D02*
X1064Y4538D01*
X1085Y4538D02*
X1089Y4538D01*
X1147Y4538D02*
X1188Y4538D01*
X1247Y4538D02*
X1252Y4538D01*
X1867Y4538D02*
X1880Y4538D01*
X2048Y4538D02*
X2052Y4538D01*
X2063Y4538D02*
X2071Y4538D01*
X2085Y4538D02*
X2089Y4538D01*
X2156Y4538D02*
X2161Y4538D01*
X2193Y4538D02*
X2198Y4538D01*
X2258Y4538D02*
X2262Y4538D01*
X4323Y4538D02*
X4328Y4538D01*
X4336Y4538D02*
X4341Y4538D01*
X4359Y4538D02*
X4364Y4538D01*
X4374Y4538D02*
X4379Y4538D01*
X4381Y4538D02*
X4385Y4538D01*
X4415Y4538D02*
X4421Y4538D01*
X865Y4537D02*
X878Y4537D01*
X1048Y4537D02*
X1052Y4537D01*
X1057Y4537D02*
X1065Y4537D01*
X1085Y4537D02*
X1089Y4537D01*
X1147Y4537D02*
X1188Y4537D01*
X1247Y4537D02*
X1252Y4537D01*
X1869Y4537D02*
X1882Y4537D01*
X2048Y4537D02*
X2052Y4537D01*
X2065Y4537D02*
X2073Y4537D01*
X2085Y4537D02*
X2089Y4537D01*
X2156Y4537D02*
X2161Y4537D01*
X2193Y4537D02*
X2198Y4537D01*
X2258Y4537D02*
X2262Y4537D01*
X4323Y4537D02*
X4328Y4537D01*
X4336Y4537D02*
X4341Y4537D01*
X4359Y4537D02*
X4364Y4537D01*
X4373Y4537D02*
X4378Y4537D01*
X4381Y4537D02*
X4385Y4537D01*
X4416Y4537D02*
X4422Y4537D01*
X868Y4536D02*
X880Y4536D01*
X1048Y4536D02*
X1052Y4536D01*
X1058Y4536D02*
X1067Y4536D01*
X1085Y4536D02*
X1089Y4536D01*
X1147Y4536D02*
X1188Y4536D01*
X1247Y4536D02*
X1252Y4536D01*
X1871Y4536D02*
X1884Y4536D01*
X2048Y4536D02*
X2052Y4536D01*
X2066Y4536D02*
X2074Y4536D01*
X2085Y4536D02*
X2089Y4536D01*
X2156Y4536D02*
X2198Y4536D01*
X2258Y4536D02*
X2262Y4536D01*
X4322Y4536D02*
X4327Y4536D01*
X4336Y4536D02*
X4341Y4536D01*
X4359Y4536D02*
X4364Y4536D01*
X4373Y4536D02*
X4378Y4536D01*
X4381Y4536D02*
X4385Y4536D01*
X4417Y4536D02*
X4423Y4536D01*
X870Y4535D02*
X883Y4535D01*
X1048Y4535D02*
X1052Y4535D01*
X1060Y4535D02*
X1068Y4535D01*
X1085Y4535D02*
X1089Y4535D01*
X1147Y4535D02*
X1188Y4535D01*
X1247Y4535D02*
X1252Y4535D01*
X1874Y4535D02*
X1886Y4535D01*
X2048Y4535D02*
X2052Y4535D01*
X2067Y4535D02*
X2075Y4535D01*
X2085Y4535D02*
X2089Y4535D01*
X2156Y4535D02*
X2198Y4535D01*
X2258Y4535D02*
X2262Y4535D01*
X4322Y4535D02*
X4327Y4535D01*
X4336Y4535D02*
X4341Y4535D01*
X4359Y4535D02*
X4364Y4535D01*
X4373Y4535D02*
X4378Y4535D01*
X4381Y4535D02*
X4385Y4535D01*
X4418Y4535D02*
X4423Y4535D01*
X872Y4534D02*
X885Y4534D01*
X1048Y4534D02*
X1052Y4534D01*
X1061Y4534D02*
X1069Y4534D01*
X1085Y4534D02*
X1089Y4534D01*
X1147Y4534D02*
X1188Y4534D01*
X1247Y4534D02*
X1252Y4534D01*
X1876Y4534D02*
X1887Y4534D01*
X2048Y4534D02*
X2052Y4534D01*
X2068Y4534D02*
X2077Y4534D01*
X2085Y4534D02*
X2089Y4534D01*
X2156Y4534D02*
X2198Y4534D01*
X2258Y4534D02*
X2262Y4534D01*
X4321Y4534D02*
X4326Y4534D01*
X4336Y4534D02*
X4341Y4534D01*
X4359Y4534D02*
X4364Y4534D01*
X4372Y4534D02*
X4377Y4534D01*
X4381Y4534D02*
X4385Y4534D01*
X4418Y4534D02*
X4424Y4534D01*
X875Y4533D02*
X887Y4533D01*
X1048Y4533D02*
X1052Y4533D01*
X1062Y4533D02*
X1070Y4533D01*
X1085Y4533D02*
X1089Y4533D01*
X1147Y4533D02*
X1188Y4533D01*
X1247Y4533D02*
X1252Y4533D01*
X1848Y4533D02*
X1887Y4533D01*
X2048Y4533D02*
X2052Y4533D01*
X2070Y4533D02*
X2078Y4533D01*
X2085Y4533D02*
X2089Y4533D01*
X2156Y4533D02*
X2198Y4533D01*
X2258Y4533D02*
X2262Y4533D01*
X4321Y4533D02*
X4326Y4533D01*
X4336Y4533D02*
X4341Y4533D01*
X4359Y4533D02*
X4364Y4533D01*
X4372Y4533D02*
X4377Y4533D01*
X4381Y4533D02*
X4385Y4533D01*
X4419Y4533D02*
X4424Y4533D01*
X877Y4532D02*
X890Y4532D01*
X1048Y4532D02*
X1052Y4532D01*
X1064Y4532D02*
X1072Y4532D01*
X1085Y4532D02*
X1089Y4532D01*
X1147Y4532D02*
X1151Y4532D01*
X1184Y4532D02*
X1188Y4532D01*
X1247Y4532D02*
X1252Y4532D01*
X1846Y4532D02*
X1887Y4532D01*
X2048Y4532D02*
X2052Y4532D01*
X2071Y4532D02*
X2079Y4532D01*
X2085Y4532D02*
X2089Y4532D01*
X2156Y4532D02*
X2198Y4532D01*
X2258Y4532D02*
X2262Y4532D01*
X4320Y4532D02*
X4325Y4532D01*
X4336Y4532D02*
X4341Y4532D01*
X4359Y4532D02*
X4364Y4532D01*
X4371Y4532D02*
X4376Y4532D01*
X4381Y4532D02*
X4385Y4532D01*
X4420Y4532D02*
X4424Y4532D01*
X879Y4531D02*
X891Y4531D01*
X1048Y4531D02*
X1052Y4531D01*
X1065Y4531D02*
X1073Y4531D01*
X1085Y4531D02*
X1089Y4531D01*
X1147Y4531D02*
X1151Y4531D01*
X1184Y4531D02*
X1188Y4531D01*
X1247Y4531D02*
X1252Y4531D01*
X1845Y4531D02*
X1887Y4531D01*
X2048Y4531D02*
X2052Y4531D01*
X2072Y4531D02*
X2080Y4531D01*
X2085Y4531D02*
X2089Y4531D01*
X2156Y4531D02*
X2161Y4531D01*
X2193Y4531D02*
X2198Y4531D01*
X2258Y4531D02*
X2262Y4531D01*
X4320Y4531D02*
X4325Y4531D01*
X4336Y4531D02*
X4341Y4531D01*
X4359Y4531D02*
X4364Y4531D01*
X4371Y4531D02*
X4376Y4531D01*
X4381Y4531D02*
X4385Y4531D01*
X4420Y4531D02*
X4424Y4531D01*
X881Y4530D02*
X891Y4530D01*
X1048Y4530D02*
X1052Y4530D01*
X1066Y4530D02*
X1074Y4530D01*
X1085Y4530D02*
X1089Y4530D01*
X1147Y4530D02*
X1151Y4530D01*
X1184Y4530D02*
X1188Y4530D01*
X1247Y4530D02*
X1287Y4530D01*
X1845Y4530D02*
X1887Y4530D01*
X2048Y4530D02*
X2053Y4530D01*
X2074Y4530D02*
X2082Y4530D01*
X2085Y4530D02*
X2089Y4530D01*
X2156Y4530D02*
X2161Y4530D01*
X2193Y4530D02*
X2198Y4530D01*
X2258Y4530D02*
X2298Y4530D01*
X4320Y4530D02*
X4325Y4530D01*
X4336Y4530D02*
X4341Y4530D01*
X4359Y4530D02*
X4364Y4530D01*
X4370Y4530D02*
X4375Y4530D01*
X4381Y4530D02*
X4385Y4530D01*
X4420Y4530D02*
X4424Y4530D01*
X851Y4529D02*
X891Y4529D01*
X1048Y4529D02*
X1052Y4529D01*
X1067Y4529D02*
X1076Y4529D01*
X1085Y4529D02*
X1089Y4529D01*
X1147Y4529D02*
X1151Y4529D01*
X1184Y4529D02*
X1188Y4529D01*
X1247Y4529D02*
X1288Y4529D01*
X1846Y4529D02*
X1887Y4529D01*
X2048Y4529D02*
X2054Y4529D01*
X2075Y4529D02*
X2089Y4529D01*
X2156Y4529D02*
X2161Y4529D01*
X2193Y4529D02*
X2198Y4529D01*
X2258Y4529D02*
X2299Y4529D01*
X4320Y4529D02*
X4324Y4529D01*
X4336Y4529D02*
X4341Y4529D01*
X4359Y4529D02*
X4364Y4529D01*
X4370Y4529D02*
X4375Y4529D01*
X4381Y4529D02*
X4385Y4529D01*
X4420Y4529D02*
X4424Y4529D01*
X850Y4528D02*
X891Y4528D01*
X1048Y4528D02*
X1052Y4528D01*
X1069Y4528D02*
X1077Y4528D01*
X1085Y4528D02*
X1089Y4528D01*
X1148Y4528D02*
X1150Y4528D01*
X1185Y4528D02*
X1187Y4528D01*
X1247Y4528D02*
X1289Y4528D01*
X1847Y4528D02*
X1887Y4528D01*
X2048Y4528D02*
X2056Y4528D01*
X2076Y4528D02*
X2089Y4528D01*
X2156Y4528D02*
X2161Y4528D01*
X2193Y4528D02*
X2198Y4528D01*
X2258Y4528D02*
X2299Y4528D01*
X4320Y4528D02*
X4324Y4528D01*
X4336Y4528D02*
X4341Y4528D01*
X4359Y4528D02*
X4364Y4528D01*
X4369Y4528D02*
X4375Y4528D01*
X4381Y4528D02*
X4385Y4528D01*
X4420Y4528D02*
X4424Y4528D01*
X850Y4527D02*
X891Y4527D01*
X1048Y4527D02*
X1052Y4527D01*
X1070Y4527D02*
X1078Y4527D01*
X1085Y4527D02*
X1089Y4527D01*
X1247Y4527D02*
X1288Y4527D01*
X2049Y4527D02*
X2057Y4527D01*
X2077Y4527D02*
X2089Y4527D01*
X2157Y4527D02*
X2160Y4527D01*
X2194Y4527D02*
X2197Y4527D01*
X2258Y4527D02*
X2299Y4527D01*
X4320Y4527D02*
X4325Y4527D01*
X4336Y4527D02*
X4341Y4527D01*
X4359Y4527D02*
X4364Y4527D01*
X4369Y4527D02*
X4374Y4527D01*
X4381Y4527D02*
X4385Y4527D01*
X4420Y4527D02*
X4424Y4527D01*
X850Y4526D02*
X891Y4526D01*
X1048Y4526D02*
X1052Y4526D01*
X1071Y4526D02*
X1079Y4526D01*
X1085Y4526D02*
X1089Y4526D01*
X1247Y4526D02*
X1288Y4526D01*
X2050Y4526D02*
X2057Y4526D01*
X2079Y4526D02*
X2088Y4526D01*
X2258Y4526D02*
X2299Y4526D01*
X4320Y4526D02*
X4325Y4526D01*
X4336Y4526D02*
X4341Y4526D01*
X4359Y4526D02*
X4364Y4526D01*
X4369Y4526D02*
X4374Y4526D01*
X4381Y4526D02*
X4385Y4526D01*
X4398Y4526D02*
X4410Y4526D01*
X4420Y4526D02*
X4424Y4526D01*
X850Y4525D02*
X891Y4525D01*
X1048Y4525D02*
X1052Y4525D01*
X1073Y4525D02*
X1081Y4525D01*
X1085Y4525D02*
X1089Y4525D01*
X1247Y4525D02*
X1286Y4525D01*
X2051Y4525D02*
X2057Y4525D01*
X2080Y4525D02*
X2087Y4525D01*
X2258Y4525D02*
X2297Y4525D01*
X4320Y4525D02*
X4325Y4525D01*
X4336Y4525D02*
X4341Y4525D01*
X4359Y4525D02*
X4364Y4525D01*
X4368Y4525D02*
X4373Y4525D01*
X4381Y4525D02*
X4385Y4525D01*
X4398Y4525D02*
X4411Y4525D01*
X4420Y4525D02*
X4424Y4525D01*
X1048Y4524D02*
X1053Y4524D01*
X1074Y4524D02*
X1082Y4524D01*
X1085Y4524D02*
X1089Y4524D01*
X2053Y4524D02*
X2056Y4524D01*
X2082Y4524D02*
X2086Y4524D01*
X4321Y4524D02*
X4326Y4524D01*
X4336Y4524D02*
X4341Y4524D01*
X4359Y4524D02*
X4364Y4524D01*
X4368Y4524D02*
X4373Y4524D01*
X4381Y4524D02*
X4385Y4524D01*
X4398Y4524D02*
X4411Y4524D01*
X4420Y4524D02*
X4424Y4524D01*
X1048Y4523D02*
X1055Y4523D01*
X1075Y4523D02*
X1089Y4523D01*
X4321Y4523D02*
X4326Y4523D01*
X4336Y4523D02*
X4341Y4523D01*
X4359Y4523D02*
X4364Y4523D01*
X4367Y4523D02*
X4372Y4523D01*
X4381Y4523D02*
X4385Y4523D01*
X4398Y4523D02*
X4411Y4523D01*
X4420Y4523D02*
X4424Y4523D01*
X1048Y4522D02*
X1056Y4522D01*
X1076Y4522D02*
X1089Y4522D01*
X4322Y4522D02*
X4327Y4522D01*
X4336Y4522D02*
X4341Y4522D01*
X4359Y4522D02*
X4364Y4522D01*
X4367Y4522D02*
X4372Y4522D01*
X4381Y4522D02*
X4385Y4522D01*
X4398Y4522D02*
X4410Y4522D01*
X4420Y4522D02*
X4424Y4522D01*
X1049Y4521D02*
X1057Y4521D01*
X1078Y4521D02*
X1088Y4521D01*
X4322Y4521D02*
X4327Y4521D01*
X4336Y4521D02*
X4341Y4521D01*
X4359Y4521D02*
X4364Y4521D01*
X4366Y4521D02*
X4371Y4521D01*
X4381Y4521D02*
X4385Y4521D01*
X4398Y4521D02*
X4408Y4521D01*
X4420Y4521D02*
X4424Y4521D01*
X1050Y4520D02*
X1057Y4520D01*
X1079Y4520D02*
X1087Y4520D01*
X4323Y4520D02*
X4328Y4520D01*
X4336Y4520D02*
X4341Y4520D01*
X4359Y4520D02*
X4364Y4520D01*
X4366Y4520D02*
X4371Y4520D01*
X4381Y4520D02*
X4385Y4520D01*
X4398Y4520D02*
X4403Y4520D01*
X4420Y4520D02*
X4424Y4520D01*
X1051Y4519D02*
X1056Y4519D01*
X1080Y4519D02*
X1086Y4519D01*
X4323Y4519D02*
X4328Y4519D01*
X4336Y4519D02*
X4341Y4519D01*
X4359Y4519D02*
X4364Y4519D01*
X4366Y4519D02*
X4371Y4519D01*
X4381Y4519D02*
X4385Y4519D01*
X4398Y4519D02*
X4403Y4519D01*
X4420Y4519D02*
X4424Y4519D01*
X1054Y4518D02*
X1054Y4518D01*
X1084Y4518D02*
X1084Y4518D01*
X4324Y4518D02*
X4329Y4518D01*
X4336Y4518D02*
X4341Y4518D01*
X4359Y4518D02*
X4370Y4518D01*
X4381Y4518D02*
X4385Y4518D01*
X4398Y4518D02*
X4403Y4518D01*
X4420Y4518D02*
X4424Y4518D01*
X4324Y4517D02*
X4329Y4517D01*
X4336Y4517D02*
X4341Y4517D01*
X4359Y4517D02*
X4370Y4517D01*
X4381Y4517D02*
X4385Y4517D01*
X4398Y4517D02*
X4403Y4517D01*
X4420Y4517D02*
X4424Y4517D01*
X4325Y4516D02*
X4330Y4516D01*
X4336Y4516D02*
X4341Y4516D01*
X4359Y4516D02*
X4369Y4516D01*
X4381Y4516D02*
X4385Y4516D01*
X4398Y4516D02*
X4403Y4516D01*
X4420Y4516D02*
X4424Y4516D01*
X1851Y4515D02*
X1864Y4515D01*
X1884Y4515D02*
X1886Y4515D01*
X4325Y4515D02*
X4330Y4515D01*
X4336Y4515D02*
X4341Y4515D01*
X4359Y4515D02*
X4369Y4515D01*
X4381Y4515D02*
X4385Y4515D01*
X4398Y4515D02*
X4403Y4515D01*
X4420Y4515D02*
X4424Y4515D01*
X1849Y4514D02*
X1864Y4514D01*
X1883Y4514D02*
X1886Y4514D01*
X4326Y4514D02*
X4331Y4514D01*
X4336Y4514D02*
X4341Y4514D01*
X4359Y4514D02*
X4368Y4514D01*
X4381Y4514D02*
X4385Y4514D01*
X4398Y4514D02*
X4403Y4514D01*
X4420Y4514D02*
X4424Y4514D01*
X1848Y4513D02*
X1864Y4513D01*
X1882Y4513D02*
X1887Y4513D01*
X4326Y4513D02*
X4332Y4513D01*
X4336Y4513D02*
X4341Y4513D01*
X4359Y4513D02*
X4368Y4513D01*
X4381Y4513D02*
X4385Y4513D01*
X4399Y4513D02*
X4404Y4513D01*
X4419Y4513D02*
X4424Y4513D01*
X1248Y4512D02*
X1251Y4512D01*
X1285Y4512D02*
X1288Y4512D01*
X1847Y4512D02*
X1864Y4512D01*
X1882Y4512D02*
X1887Y4512D01*
X2259Y4512D02*
X2261Y4512D01*
X2296Y4512D02*
X2298Y4512D01*
X4326Y4512D02*
X4345Y4512D01*
X4359Y4512D02*
X4368Y4512D01*
X4381Y4512D02*
X4385Y4512D01*
X4399Y4512D02*
X4424Y4512D01*
X854Y4511D02*
X868Y4511D01*
X887Y4511D02*
X890Y4511D01*
X1247Y4511D02*
X1251Y4511D01*
X1284Y4511D02*
X1288Y4511D01*
X1846Y4511D02*
X1864Y4511D01*
X1882Y4511D02*
X1887Y4511D01*
X2258Y4511D02*
X2262Y4511D01*
X2295Y4511D02*
X2299Y4511D01*
X4327Y4511D02*
X4346Y4511D01*
X4359Y4511D02*
X4367Y4511D01*
X4381Y4511D02*
X4385Y4511D01*
X4400Y4511D02*
X4423Y4511D01*
X853Y4510D02*
X868Y4510D01*
X887Y4510D02*
X891Y4510D01*
X1247Y4510D02*
X1252Y4510D01*
X1284Y4510D02*
X1289Y4510D01*
X1846Y4510D02*
X1864Y4510D01*
X1882Y4510D02*
X1887Y4510D01*
X2258Y4510D02*
X2262Y4510D01*
X2295Y4510D02*
X2299Y4510D01*
X4328Y4510D02*
X4346Y4510D01*
X4359Y4510D02*
X4367Y4510D01*
X4381Y4510D02*
X4385Y4510D01*
X4400Y4510D02*
X4422Y4510D01*
X852Y4509D02*
X868Y4509D01*
X887Y4509D02*
X891Y4509D01*
X1247Y4509D02*
X1252Y4509D01*
X1284Y4509D02*
X1289Y4509D01*
X1846Y4509D02*
X1851Y4509D01*
X1859Y4509D02*
X1864Y4509D01*
X1882Y4509D02*
X1887Y4509D01*
X2258Y4509D02*
X2262Y4509D01*
X2295Y4509D02*
X2299Y4509D01*
X4329Y4509D02*
X4346Y4509D01*
X4359Y4509D02*
X4366Y4509D01*
X4381Y4509D02*
X4385Y4509D01*
X4401Y4509D02*
X4421Y4509D01*
X851Y4508D02*
X868Y4508D01*
X887Y4508D02*
X891Y4508D01*
X1247Y4508D02*
X1252Y4508D01*
X1284Y4508D02*
X1289Y4508D01*
X1845Y4508D02*
X1850Y4508D01*
X1859Y4508D02*
X1864Y4508D01*
X1882Y4508D02*
X1887Y4508D01*
X2258Y4508D02*
X2262Y4508D01*
X2295Y4508D02*
X2299Y4508D01*
X4330Y4508D02*
X4345Y4508D01*
X4359Y4508D02*
X4366Y4508D01*
X4382Y4508D02*
X4384Y4508D01*
X4403Y4508D02*
X4420Y4508D01*
X850Y4507D02*
X868Y4507D01*
X887Y4507D02*
X891Y4507D01*
X1247Y4507D02*
X1252Y4507D01*
X1284Y4507D02*
X1289Y4507D01*
X1845Y4507D02*
X1850Y4507D01*
X1859Y4507D02*
X1864Y4507D01*
X1882Y4507D02*
X1887Y4507D01*
X2258Y4507D02*
X2262Y4507D01*
X2295Y4507D02*
X2299Y4507D01*
X850Y4506D02*
X856Y4506D01*
X864Y4506D02*
X868Y4506D01*
X887Y4506D02*
X891Y4506D01*
X1247Y4506D02*
X1252Y4506D01*
X1284Y4506D02*
X1289Y4506D01*
X1845Y4506D02*
X1850Y4506D01*
X1859Y4506D02*
X1864Y4506D01*
X1882Y4506D02*
X1887Y4506D01*
X2258Y4506D02*
X2262Y4506D01*
X2295Y4506D02*
X2299Y4506D01*
X850Y4505D02*
X855Y4505D01*
X864Y4505D02*
X868Y4505D01*
X887Y4505D02*
X891Y4505D01*
X1247Y4505D02*
X1252Y4505D01*
X1284Y4505D02*
X1289Y4505D01*
X1845Y4505D02*
X1850Y4505D01*
X1859Y4505D02*
X1864Y4505D01*
X1882Y4505D02*
X1887Y4505D01*
X2258Y4505D02*
X2262Y4505D01*
X2295Y4505D02*
X2299Y4505D01*
X850Y4504D02*
X854Y4504D01*
X864Y4504D02*
X868Y4504D01*
X887Y4504D02*
X891Y4504D01*
X1247Y4504D02*
X1252Y4504D01*
X1284Y4504D02*
X1289Y4504D01*
X1845Y4504D02*
X1850Y4504D01*
X1859Y4504D02*
X1864Y4504D01*
X1882Y4504D02*
X1887Y4504D01*
X2258Y4504D02*
X2262Y4504D01*
X2295Y4504D02*
X2299Y4504D01*
X850Y4503D02*
X854Y4503D01*
X864Y4503D02*
X868Y4503D01*
X887Y4503D02*
X891Y4503D01*
X1247Y4503D02*
X1252Y4503D01*
X1284Y4503D02*
X1289Y4503D01*
X1845Y4503D02*
X1850Y4503D01*
X1860Y4503D02*
X1863Y4503D01*
X1882Y4503D02*
X1887Y4503D01*
X2258Y4503D02*
X2262Y4503D01*
X2295Y4503D02*
X2299Y4503D01*
X850Y4502D02*
X854Y4502D01*
X864Y4502D02*
X868Y4502D01*
X887Y4502D02*
X891Y4502D01*
X1247Y4502D02*
X1252Y4502D01*
X1284Y4502D02*
X1289Y4502D01*
X1845Y4502D02*
X1850Y4502D01*
X1861Y4502D02*
X1862Y4502D01*
X1881Y4502D02*
X1886Y4502D01*
X2258Y4502D02*
X2262Y4502D01*
X2295Y4502D02*
X2299Y4502D01*
X850Y4501D02*
X854Y4501D01*
X864Y4501D02*
X868Y4501D01*
X887Y4501D02*
X891Y4501D01*
X1247Y4501D02*
X1252Y4501D01*
X1284Y4501D02*
X1289Y4501D01*
X1845Y4501D02*
X1850Y4501D01*
X1879Y4501D02*
X1886Y4501D01*
X2258Y4501D02*
X2262Y4501D01*
X2295Y4501D02*
X2299Y4501D01*
X850Y4500D02*
X854Y4500D01*
X864Y4500D02*
X868Y4500D01*
X886Y4500D02*
X891Y4500D01*
X1247Y4500D02*
X1252Y4500D01*
X1284Y4500D02*
X1289Y4500D01*
X1845Y4500D02*
X1850Y4500D01*
X1878Y4500D02*
X1885Y4500D01*
X2258Y4500D02*
X2262Y4500D01*
X2295Y4500D02*
X2299Y4500D01*
X850Y4499D02*
X854Y4499D01*
X865Y4499D02*
X867Y4499D01*
X886Y4499D02*
X891Y4499D01*
X1247Y4499D02*
X1252Y4499D01*
X1284Y4499D02*
X1288Y4499D01*
X1845Y4499D02*
X1850Y4499D01*
X1877Y4499D02*
X1885Y4499D01*
X2258Y4499D02*
X2263Y4499D01*
X2295Y4499D02*
X2299Y4499D01*
X850Y4498D02*
X854Y4498D01*
X884Y4498D02*
X891Y4498D01*
X1247Y4498D02*
X1253Y4498D01*
X1283Y4498D02*
X1288Y4498D01*
X1845Y4498D02*
X1850Y4498D01*
X1876Y4498D02*
X1884Y4498D01*
X2258Y4498D02*
X2263Y4498D01*
X2294Y4498D02*
X2299Y4498D01*
X850Y4497D02*
X854Y4497D01*
X883Y4497D02*
X890Y4497D01*
X1248Y4497D02*
X1254Y4497D01*
X1282Y4497D02*
X1288Y4497D01*
X1845Y4497D02*
X1850Y4497D01*
X1874Y4497D02*
X1882Y4497D01*
X2258Y4497D02*
X2265Y4497D01*
X2293Y4497D02*
X2299Y4497D01*
X850Y4496D02*
X854Y4496D01*
X882Y4496D02*
X889Y4496D01*
X1248Y4496D02*
X1256Y4496D01*
X1280Y4496D02*
X1288Y4496D01*
X1845Y4496D02*
X1850Y4496D01*
X1873Y4496D02*
X1881Y4496D01*
X2259Y4496D02*
X2267Y4496D01*
X2291Y4496D02*
X2298Y4496D01*
X850Y4495D02*
X854Y4495D01*
X881Y4495D02*
X889Y4495D01*
X1249Y4495D02*
X1258Y4495D01*
X1278Y4495D02*
X1287Y4495D01*
X1846Y4495D02*
X1850Y4495D01*
X1872Y4495D02*
X1880Y4495D01*
X2259Y4495D02*
X2269Y4495D01*
X2289Y4495D02*
X2298Y4495D01*
X850Y4494D02*
X854Y4494D01*
X879Y4494D02*
X887Y4494D01*
X1250Y4494D02*
X1260Y4494D01*
X1276Y4494D02*
X1286Y4494D01*
X1846Y4494D02*
X1852Y4494D01*
X1869Y4494D02*
X1878Y4494D01*
X2260Y4494D02*
X2271Y4494D01*
X2287Y4494D02*
X2297Y4494D01*
X850Y4493D02*
X854Y4493D01*
X878Y4493D02*
X886Y4493D01*
X1251Y4493D02*
X1262Y4493D01*
X1274Y4493D02*
X1285Y4493D01*
X1846Y4493D02*
X1877Y4493D01*
X2262Y4493D02*
X2273Y4493D01*
X2285Y4493D02*
X2296Y4493D01*
X850Y4492D02*
X854Y4492D01*
X877Y4492D02*
X885Y4492D01*
X1253Y4492D02*
X1264Y4492D01*
X1272Y4492D02*
X1283Y4492D01*
X1847Y4492D02*
X1876Y4492D01*
X2263Y4492D02*
X2275Y4492D01*
X2283Y4492D02*
X2294Y4492D01*
X850Y4491D02*
X855Y4491D01*
X875Y4491D02*
X883Y4491D01*
X1255Y4491D02*
X1281Y4491D01*
X1848Y4491D02*
X1875Y4491D01*
X2265Y4491D02*
X2292Y4491D01*
X850Y4490D02*
X882Y4490D01*
X1257Y4490D02*
X1279Y4490D01*
X1849Y4490D02*
X1873Y4490D01*
X2267Y4490D02*
X2290Y4490D01*
X851Y4489D02*
X881Y4489D01*
X1259Y4489D02*
X1277Y4489D01*
X1850Y4489D02*
X1871Y4489D01*
X2269Y4489D02*
X2288Y4489D01*
X851Y4488D02*
X880Y4488D01*
X1261Y4488D02*
X1275Y4488D01*
X2271Y4488D02*
X2286Y4488D01*
X852Y4487D02*
X878Y4487D01*
X1263Y4487D02*
X1273Y4487D01*
X2273Y4487D02*
X2284Y4487D01*
X854Y4486D02*
X877Y4486D01*
X1266Y4486D02*
X1270Y4486D01*
X2276Y4486D02*
X2281Y4486D01*
X856Y4485D02*
X874Y4485D01*
D02*
G04 End of Silk0*
M02*